<svg id="Layer_1" data-name="Layer 1" xmlns="http://www.w3.org/2000/svg" viewBox="0 0 452.75 448.7"><title>logo</title><g id="_2Q0kFe.tif" data-name="2Q0kFe.tif"><path d="M432.3,225.8c.55,3.58,1.1,7,1.61,10.42,1,6.4,2.16,12.78,2.76,19.21.56,6-1.49,10.21-7.11,12.72a1.32,1.32,0,0,0-.65,1.05c.91,5.11,1.89,10.21,4.2,14.93a10.64,10.64,0,0,0,4.92,5A62.69,62.69,0,0,0,452.92,294q6.54,1.42,13.11,2.7a5.68,5.68,0,0,1,4.14,6.81c-1.52,4.86-3.18,9.68-4.88,14.48a280.68,280.68,0,0,1-16.89,39.23c-8.06,15-17.61,28.91-29.71,41-16,16-35.16,26.75-56.72,33.37a289.32,289.32,0,0,1-39.36,9.08c-8.19,1.3-16.43,2.32-24.63,3.58a48.89,48.89,0,0,0-16.55,5.76c-4.72,2.64-8.26,6.6-11.74,10.59-3.9,4.47-7.66,9.07-11.47,13.62a6.33,6.33,0,0,1-10-.06c-5-5.89-10-11.76-15.07-17.56-5.88-6.7-13.52-10.28-22.15-11.76-7.95-1.36-16-2.31-23.92-3.62-20.7-3.43-41.18-7.78-60.46-16.41-21-9.41-38.25-23.57-52.12-41.92-12.09-16-21.27-33.53-28.47-52.16-3.23-8.36-6.13-16.85-9.18-25.28-.87-2.39-1-4.77.76-6.8a5.82,5.82,0,0,1,2.77-1.8c5.89-1.38,11.86-2.44,17.72-3.92a85.91,85.91,0,0,0,9.89-3.5,10.78,10.78,0,0,0,6-6.26,64.6,64.6,0,0,0,3.79-14.3c-.42-.18-.81-.38-1.22-.53-4.79-1.81-7.36-5.37-7.46-10.4a59.41,59.41,0,0,1,.9-9.65c1.06-7.3,2.27-14.58,3.4-21.88a7.21,7.21,0,0,0,0-1l-11.09-1.73-19.31-3L31.9,218.86a5,5,0,0,1-4.53-4.41,5.72,5.72,0,0,1,2.28-5.61c5.82-4.92,11.6-9.88,17.48-14.9-2.16-3.63-4.3-7.23-6.45-10.81-1.59-2.66-3.33-5.24-4.78-8a5.7,5.7,0,0,1,.27-6.3c1.28-1.78,3.46-2.4,5.86-1.87q14.74,3.23,29.5,6.39l10.31,2.23c-1-2.3-1.84-4.39-2.81-6.42a131.29,131.29,0,0,0-18.1-27.3c-2.66-3.19-5.33-6.37-8.07-9.49-2.94-3.35-3-5.77-1.06-9.57q9.37-18.09,18.71-36.19Q83.85,60.83,97.16,35c1.22-2.37,2.92-4.06,5.65-4.1a20.67,20.67,0,0,1,4.68.81q35.12,7.84,70.24,15.69c8.13,1.81,16.26,3.65,24.44,5.21a80.63,80.63,0,0,0,20.53,1.64,17.23,17.23,0,0,0,13.57-7.54c3.82-5.29,7.89-10.41,11.49-15.84a6.49,6.49,0,0,1,10.92-.08c3.78,5.59,7.94,10.92,11.93,16.37,2.46,3.36,5.55,6,9.71,6.58a60,60,0,0,0,11.45.47c11.29-.59,22.2-3.51,33.18-5.93q30.47-6.73,60.91-13.6L402.39,31a5.86,5.86,0,0,1,5.79,2.19c1.39,2.29,2.64,4.68,3.87,7.07q18.51,35.83,37,71.67,3,5.89,6.11,11.77c1.5,2.86,1.14,5.51-1.11,8.18-3.76,4.47-7.58,8.89-11.25,13.44a115.34,115.34,0,0,0-17.64,29.15c-.14.34-.27.68-.39,1a2,2,0,0,0,0,.49c2.13-.45,4.24-.89,6.34-1.35l34.55-7.53a5.31,5.31,0,0,1,5.5,2.14,5.63,5.63,0,0,1,.1,6.32c-3.41,5.87-6.93,11.68-10.46,17.49-.53.87-.49,1.35.3,2q8.44,7.09,16.8,14.27a5.48,5.48,0,0,1,2,5.22,4.92,4.92,0,0,1-4.28,4.5c-4.8.82-9.62,1.54-14.43,2.29L443,224.17ZM42.06,302.26c.13.45.21.8.33,1.14,2.74,7.63,5.37,15.3,8.26,22.87C57.81,345,66.75,362.7,78.84,378.76c14.71,19.53,33.24,34,56,43,18.94,7.47,38.75,11.39,58.78,14.43,6.58,1,13.18,1.84,19.72,3.05,9.16,1.7,17.23,5.66,23.58,12.63,4.12,4.52,8.07,9.19,12.07,13.81,1.36,1.57,2.65,3.19,4.13,5V305.9a2.86,2.86,0,0,0-.45-.13c-7.35-.74-14.72-1.32-22-2.27a79.59,79.59,0,0,1-19.39-5c-4-1.61-7.54-3.89-9.35-8.12-.11-.26-.62-.46-1-.49-9.43-1-18.89-1.85-28.3-3-11-1.4-22-2.95-32.88-4.73-18.52-3-36.91-6.73-55.07-11.52a9.94,9.94,0,0,0-1.13-.18c-1,3.85-1.86,7.51-2.79,11.17C78.87,289,74.33,294,66.92,296.22c-4.49,1.34-9,2.62-13.55,3.73C49.66,300.86,45.89,301.49,42.06,302.26ZM416,209.47l-.1-.83c-.39-3.39-1-6.78-1.14-10.18a60.13,60.13,0,0,1,2.8-20.21c3.58-11.71,9.67-22.12,17-31.79,4.8-6.32,10-12.34,15-18.47a1.26,1.26,0,0,0,.24-1.65Q438.37,104.24,427,82.12q-11-21.26-22-42.51c-1.47-2.84-1.44-2.89-4.6-2.19-19.52,4.34-39,8.75-58.54,13-13.7,3-27.41,6-41.16,8.71a56.91,56.91,0,0,1-19.46.74c-5.78-.85-10.74-3.15-14.32-7.93q-5-6.68-10-13.39c-1.17-1.58-2.31-3.19-3.68-5.09V97.81a19.34,19.34,0,0,1,7.31,7.84c.87-1.16,1.53-2.17,2.31-3.06s1.65-1.57,2.46-2.38A3.39,3.39,0,0,1,268.88,99c1.54.42,2,1.59,2.35,2.89a19.3,19.3,0,0,1-.7,11.82,2.49,2.49,0,0,0,0,1.5c.8,2.37,2,4.65,2.43,7.07.77,4.59,1.6,9.27,1.42,13.88-.17,4.4-1.55,8.76-2.51,13.11a4.9,4.9,0,0,1-1.38,2.29,1.42,1.42,0,0,0-.34,1.78c.69,2.07,2.11,4,1.47,6.34,2.43.63,2.45.64,3.67-1.35.71-1.15,1.77-2,3-1.67,3,.74,6,1.43,8.63,3.16,2-2.16,2.5-2.23,5.33-.78a1.44,1.44,0,0,0,1,0,5.9,5.9,0,0,1,5.31,1c.79.51,1.56,1.05,2.41,1.62.44-.73.83-1.34,1.17-2a3.06,3.06,0,0,1,3-1.81,3.16,3.16,0,0,1,2.87,2.18,62.87,62.87,0,0,1,4.29,16.06,63.51,63.51,0,0,1-3.51,30.14c-.91,2.55-1.85,3.14-4.59,2.85,2.52,6.64,1.44,12.85-2.29,18.89C340.61,225.39,378.77,220.58,416,209.47ZM260.62,234.88c-.32,2.24-.74,4.18-.86,6.15-.16,2.66-1.23,3.84-3.88,3.86-3,0-6,.15-9,0-2.56-.17-5.13-.5-7.27-2.29a4.19,4.19,0,0,0-2.49-.79q-9.87-.09-19.73,0a6.67,6.67,0,0,1-4.86-2.12c-.19-.19-.37-.4-.57-.57-1.82-1.55-3.63-3.11-5.48-4.63a3,3,0,0,0-1.44-.76c-10-.87-20.12-1.46-30.14-2.58-11.32-1.26-22.61-2.87-33.87-4.55a372.47,372.47,0,0,1-38.26-7.88c-4.67-1.21-9.28-2.74-14-3.67-6.46-1.27-8.16.91-9,5.93-1.42,8.82-2.84,17.64-4.17,26.47-.51,3.37-.86,6.78-1.1,10.18-.18,2.57,1.21,4.32,3.51,5.34a14.67,14.67,0,0,0,2.57.93c12,2.85,24,5.91,36,8.42,11,2.28,22,4.08,33.11,5.85q13.5,2.16,27.09,3.74c9.7,1.13,19.42,2.12,29.15,2.82,11.29.82,22.6,1.51,33.91,1.82a519.22,519.22,0,0,0,60.08-1.82c11.27-1,22.54-2,33.77-3.41,11.76-1.47,23.48-3.24,35.17-5.17,16.36-2.71,32.6-6.05,48.67-10.19,3.34-.86,6.67-1.82,9.94-2.92,2.76-.93,4-3.12,3.85-6a58.32,58.32,0,0,0-.64-6.12q-1.82-12-3.74-24.05c-.45-2.83-.92-5.67-1.63-8.44a4.4,4.4,0,0,0-4.66-3.65,20.91,20.91,0,0,0-5.14.5c-9.77,2.38-19.45,5.2-29.29,7.23-11.68,2.41-23.47,4.37-35.27,6.14-9.06,1.37-18.19,2.29-27.32,3.16s-18.28,1.57-27.44,2.08-18.25.7-27.38,1C266.08,235,263.35,234.88,260.62,234.88Zm192.54-39.53,13.52-22.81a6.25,6.25,0,0,0-.91,0q-21,4.55-41.91,9.08a1.84,1.84,0,0,0-1.62,1.65,55.53,55.53,0,0,0-1.36,17c.28,3.07.72,6.13,1.08,9.2,6.4,1,8.59,5.41,9.43,11l43.31-6.66ZM32.6,213.54,74.37,220c.26-1.09.45-2,.7-2.94.9-3.28,2.78-6,6.08-6.8,2.83-.65,3.64-1.93,4-4.61a61.46,61.46,0,0,0-1-22.94,1.59,1.59,0,0,0-1.39-1.39q-18.69-4-37.36-8.12c-1.51-.33-3-.62-4.79-1l13.58,22.9Zm357.47,94.13c-.51.25-.71.34-.91.44a340,340,0,0,0-37.61,23.67c-4.84,3.59-9.55,7.36-13.23,12.23-7.47,9.9-13.57,20.64-19.36,31.58a13,13,0,0,1-1.69,2.78c-5.56,6.05-11.18,12.05-16.77,18.08-1.89,2-3.75,4.11-5.62,6.16,3.35-1.49,6.52-3.16,9.67-4.87a7,7,0,0,0,1.72-1.3q9-9.5,18-19a3.16,3.16,0,0,1,1.43-.92c2.57-.61,5.17-1.08,7.74-1.69,9.86-2.34,19.59-5.06,28.65-9.73a32.57,32.57,0,0,0,7.9-5.44l-12.5-7.09c6.16,0,11.91-.08,17.66,0,2.37,0,4.22-.77,5.24-2.78a60.91,60.91,0,0,0,4-9.22c2.47-7.85,3.64-16,4.69-24.12C389.47,313.64,389.73,310.79,390.07,307.67ZM156.38,102.2l-.5,0c-7.44,13.26-14.83,26.55-22.26,40.07h44.79Zm-2.49-.16-.33-.46-37.81,2.71,16.5,35.77.52,0Zm25.52,38,.49,0,16.77-35.77-38-2.73-.26.4Zm-44.81,4.49-.19.42,21.91,28,21.52-28-.32-.37Zm67.53,22.43.37,0c.72,1.26,1.48,2.5,2.14,3.79a2.31,2.31,0,0,1,.16,1.29c-.42,3.21-1,6.39-1.29,9.61a47.46,47.46,0,0,0,2.31,19.69c.86,2.57.9,2.56,3.54,2.27.23,0,.46,0,.68,0a33.24,33.24,0,0,0,12-3.35c6.07-3.2,8.64-8.44,7-14.44-1.32-4.76-5-6.74-9.41-8a22.24,22.24,0,0,1-5-2c-4.91-2.84-8.31-7.19-11.32-11.87-.58-.9-1.12-1.82-1.79-2.9-6.12,15.19-6.11,30.17-.5,45.32l2.66-1.39C197.93,192.38,199.87,179.66,202.14,166.94ZM305,161.05c-.55.9-.94,1.68-1.45,2.37-1.83,2.49-3.57,5.08-5.6,7.41a24.05,24.05,0,0,1-12.6,7.48c-9.58,2.48-10.85,14.24-4.22,19.53A26.66,26.66,0,0,0,286.4,201c3.62,1.72,7.58,2.17,11.51,2.72,1.36.19,2.19,0,2.49-1.41a5.2,5.2,0,0,1,.23-.64,50,50,0,0,0,1.66-26.57,8.77,8.77,0,0,1,2.21-8.4c.6,3.91,1.27,7.58,1.69,11.28a64.54,64.54,0,0,1,0,16.24,32.29,32.29,0,0,1-3.32,10.61l2.63,1.32C310.8,194.26,311.65,175.53,305,161.05Zm-11,49.45-.33.18c-.33-.53-.64-1.08-1-1.6-2.25-3.41-5.17-5.82-9.45-5.89-6.8-.12-13.6-.15-20.4-.14-2,0-4,.23-6.11.36.51.87,1,1.54,1.33,2.26a19.93,19.93,0,0,1,1.86,10,1.6,1.6,0,0,0,1,1.71c2.07,1.07,4,2.33,6.14,3.32,4.24,2,8.49,4,12.85,5.68,3.16,1.24,6.13.37,8.57-2a10.16,10.16,0,0,0,1.3-2.11,3.89,3.89,0,0,0-.61-.15c-.41,0-.82,0-1.23.08-8.37.94-16-1.34-23.1-5.57-2.42-1.44-2.38-1.49-1.64-4.16l.51-1.82c2.85,0,5.68-.14,8.49,0,8.59.51,16.55,2.65,22.8,9.29,1.24-3.38.9-6.8.76-10.35a29.66,29.66,0,0,0,2.82,1.7,3.61,3.61,0,0,1,2.24,3.84c-.23,2.61-.65,5.21-1,7.81-.1.68-.37,1.34.58,1.67a7.67,7.67,0,0,0,.4-.73c.24-.59.48-1.18.69-1.78,1.46-4.32,1.61-8.58-.67-12.69a7,7,0,0,0-4.3-3.6,45.51,45.51,0,0,0-5.46-.78Zm-78.82,14.6c-.47,1.38-.84,2.58-1.3,3.74s.06,1.93,1.07,2.68a14.21,14.21,0,0,0,10,3.19c4.4-.32,8.83-.07,13.29-.07v2.94h-1.46c-4.7,0-9.41-.08-14.1,0a8.87,8.87,0,0,1-5.64-1.61c-1-.7-2-1.32-3.22-2.11.17.88.27,1.55.44,2.2.55,2,1.23,2.54,3.41,2.54,6.94,0,13.88,0,20.82,0a4.23,4.23,0,0,1,1.94.7c.92.54,1.77,1.21,2.94,2-.2-1.76-.42-3.14-.5-4.53a1.49,1.49,0,0,0-1.12-1.47,30.66,30.66,0,0,1-12-8.66,5,5,0,0,1-1.39-3.69,31.15,31.15,0,0,0-.16-4.78,1.48,1.48,0,0,0-.87-1c-3.34-.88-6.74-1.57-10-2.54a6.18,6.18,0,0,0-4.46.43c-4.45,1.93-6.62,5.28-6.73,10.14s2.93,7.84,6.51,10.92C212.39,232,212.64,228.39,215.25,225.1ZM383.07,399.58a7.8,7.8,0,0,0-.87-.36c-3.76-1.07-7.5-2.24-11.3-3.17-12.08-3-24.29-5-36.79-4.72a89.5,89.5,0,0,0-9.5,1,2.44,2.44,0,0,0-2.35,2.29c-.09,1.4.91,2.1,2.07,2.57a6.57,6.57,0,0,0,1.17.37l15,3c1.93.39,3.86.81,5.78,1.22l-.05.48c-16.74,2-33.56.91-50.36.93a35.34,35.34,0,0,0,3.86.64c7.76.78,15.51,1.78,23.29,2.24,6.78.39,13.59.28,20.38.14a30.68,30.68,0,0,0,6.94-1.36,2.86,2.86,0,0,0,2.43-2.78,3,3,0,0,0-2.32-2.89,61.94,61.94,0,0,0-6.4-1.9c-3.37-.77-6.78-1.38-10.17-2.05C350.48,394.32,366.73,396.82,383.07,399.58ZM253.14,137.45c1.44.57,2.69,1,3.86,1.58a1.71,1.71,0,0,1,.8,1.28c-.05,2.14-.24,4.28-.38,6.42-.2,3.08-.39,6.17-.59,9.28,1.72-.3,1.76-.32,1.79-1.85,0-1.83,0-3.65.09-5.48.09-3,.21-6,.33-9.14a10.23,10.23,0,0,1,2.1.45,1.37,1.37,0,0,1,.68,1.05c-.2,3.32-.46,6.64-.74,10a7,7,0,0,1-.32,1.45c-.21.7-.47,1.38-.75,2.19,2.16-.39,2.85-1.48,2.75-3.33s0-3.65.08-5.48.19-3.89.29-6l2.55.5c-.15,2.16-.24,4.2-.46,6.24s-.55,3.85-.83,5.81c2.54-1.52,5.07-3.06,5.37-6.49,0-.49.25-1,.33-1.46.5-2.83,1-5.66,1.46-8.37a38.64,38.64,0,0,1-5,1.67c-4.38.84-8.47-.47-12.53-1.95a3.48,3.48,0,0,0-1.89,0c-2.87.69-5.68,1.69-8.58,2.14a12.12,12.12,0,0,1-9-2.22c.43,2.59.74,4.89,1.21,7.16,1.47,7.08,1.75,7.42,8.14,10.88a32.65,32.65,0,0,0,9.23,3.57ZM157.42,80.28l-.45.34c0,.49,0,1,0,1.47.07,4.88.09,9.76.21,14.64.07,3-.3,2.92,2.75,3,.5,0,1,.13,1.49.17l30.42,2.21c.73.05,1.48,0,2.22,0l.14-.41Zm97,131.61c-.65-2-1.39-4.29-2.13-6.57-.37-1.13-1-1.72-2.3-1.32a20.48,20.48,0,0,1-2.71.34c-4.51.7-9,1.56-13,3.82a7.84,7.84,0,0,0-4.38,5.94c-.31,2.79-.07,5.64-.18,8.46-.08,2.13,1.36,3.17,2.95,4.57V221c1.34,1,2,2,1.83,3.57a19.11,19.11,0,0,0,0,2.6c0,1.77.65,2.54,2.59,3v-6c1.17.92,2.05,1.68,1.85,3.21a18.78,18.78,0,0,0,0,3.42,1.35,1.35,0,0,0,.48,1c1,.53,2,.94,3.18,1.47,0-3,0-5.69,0-8.43,0-2.54,0-2.54,2.41-3.12,2.68-.65,5.54-2.66,6.42-4.5-4.2,2.21-8.4,4.51-13.36,4.66-.43-3.49-.43-3.49,2.27-5a11.18,11.18,0,0,1,1.84-.91C246.1,214.58,250.07,213.31,254.44,211.89Zm23.75-52.2a2.83,2.83,0,0,0-.3.35c-5.45,9.43-13.57,15.58-23.71,19.21a3.37,3.37,0,0,1-2.08,0,45.21,45.21,0,0,1-16.62-10,41,41,0,0,1-7.45-9.61l-5.62,1.87c-.16.05-.31.14-.65.29,6.31,13.32,17.28,20.68,31,25.08,0-1.58.09-3,0-4.3s.25-1.72,1.48-2a37.36,37.36,0,0,0,22.33-16.09,1.5,1.5,0,0,1,1.26-.47c1.64.3,3.26.72,5,1.12l1.62-3.37ZM118.08,101.57l.19.46c.3,0,.61,0,.91,0,11.43-.77,22.85-1.59,34.28-2.28,1.45-.09,1.73-.57,1.71-1.84-.07-5.34-.06-10.68-.1-16a11.33,11.33,0,0,0-.25-1.56Zm133.69,99.27c0-2.69,0-5.7,0-8.71,0-1-.36-1.32-1.22-1.61-4.78-1.64-9.53-3.34-14.3-5-1.74-.61-3.49-1.19-5.41-1.84.08.39.1.56.14.72,2,6.82,0,12.46-5.77,16.5-.95.66-1.41,1.22-.64,2.35,6.66-3.3,9.11-9,9.23-16.07,2.76.19,3.1.53,3.06,3.13a25.42,25.42,0,0,1-4.82,14.7c-.95,1.32-2,2.54-3,3.81,1,.79,1.75.58,2.75-.13a31.66,31.66,0,0,1,7-4.2C242.88,203,247.22,202.07,251.76,200.84ZM115.69,149.59c.65-.23,1.15-.37,1.63-.59l12.19-5.5c1.78-.8,1.81-.82,1-2.59q-6.94-15-13.91-30A8.73,8.73,0,0,0,116,110l-.31.1Zm81-39.93-.26-.1c-.24.42-.51.83-.72,1.26-2,4.24-4,8.47-6,12.73q-4,8.68-8,17.39c-.81,1.78-.79,1.82.95,2.62q6.21,2.84,12.45,5.63a11.86,11.86,0,0,0,1.53.44Zm84.43,91.11c-5.88-4.41-7.54-10.06-5.46-16.82-.13-.09-.18-.14-.2-.14q-10,3.44-20,6.92a1.06,1.06,0,0,0-.61.75c0,3.09,0,6.18,0,9.26l17.27-.58c-.24-.53-.45-1-.66-1.42a20.46,20.46,0,0,1-1.62-10,1.41,1.41,0,0,1,.6-1,13.35,13.35,0,0,1,2.16-.64c0,.8,0,1.44,0,2.07a14.74,14.74,0,0,0,1.92,8.27C276,199.89,277.93,201.35,281.13,200.77ZM161.84,169.26l.32.38,32.22-18.47c-.82-.5-1.17-.77-1.57-.95q-5.27-2.42-10.56-4.81c-1.85-.83-1.86-.81-3.11.83l-16.67,22C162.23,168.58,162,168.93,161.84,169.26Zm-11.68.33.27-.31a6.39,6.39,0,0,0-.45-.8q-8.74-11.5-17.48-23a1.23,1.23,0,0,0-1.75-.43c-3.83,1.8-7.69,3.56-11.53,5.34a8.14,8.14,0,0,0-1,.72Zm72.35,33.14c-1.91.65-3.65,1.35-5.44,1.82s-3.75.74-5.61,1.13q-3.79.8-7.56,1.66c-1,.24-1.29.91-1.11,1.95.33,1.88.54,3.79.81,5.68.31,2.18.62,4.36.94,6.59.2-.11.32-.14.33-.19a11.62,11.62,0,0,1,5.74-7.15,9.82,9.82,0,0,1,9-.85,60.45,60.45,0,0,0,6.38,1.58C226.11,210.29,222.82,206.92,222.51,202.72ZM241.67,185c-.15-.27-.17-.37-.23-.41-.52-.29-1-.56-1.56-.85-8.67-4.92-15.64-11.48-19.76-20.71-1.4-3.15-2.5-3-4.63-.93-.06.06-.07.16-.1.24l-.29.19,6.44,9.58a6.3,6.3,0,0,1-.56-.38,35,35,0,0,1-7.58-8.57c-.62-1-1.4-1.74-2.57-1.11-1.42.76-2.74,1.73-4.23,2.7.94,1.2,1.68,2.23,2.5,3.19,3.22,3.79,6.92,6.83,12,7.91a15.29,15.29,0,0,1,6.74,3.47,14,14,0,0,0,3.19,1.94c1.19.55,2.48.89,3.72,1.33Zm21.58.37a3.23,3.23,0,0,0,.68,0q6.5-2.28,13-4.59a2.94,2.94,0,0,0,1.13-.72,15.8,15.8,0,0,1,8.17-4.44c6.2-1.49,10-5.92,13.7-10.82-1.26-.86-2.35-1.69-3.52-2.38-1.52-.91-2.09-.65-3.18.78-1.72,2.24-3.47,4.46-5.34,6.57a32.62,32.62,0,0,1-3.44,3l-.26-.26a32.11,32.11,0,0,0,7.07-10.22c-.27-.24-.46-.43-.68-.59s-.45-.26-.78-.44C283.49,172,274.39,179.62,263.25,185.38ZM238,101.91a15.42,15.42,0,0,0,.14,10.07,1.56,1.56,0,0,0,1.08.89q13.76.08,27.52,0a1.2,1.2,0,0,0,.94-.51A15,15,0,0,0,268,102c-1,.93-1.9,1.76-2.81,2.56a2.94,2.94,0,0,0-1.16,2.31,3.48,3.48,0,0,1-2.38,3.49c-2.64.87-4.65-.68-4.74-3.59,0-.61,0-1.39-.31-1.78-1.12-1.29-2.41-2.44-3.54-3.56-.8.73-1.55,1.46-2.35,2.13a4.21,4.21,0,0,0-1.71,3.74,2.9,2.9,0,0,1-2.34,3.11c-2.49.69-4.5-.88-4.74-3.66a2.47,2.47,0,0,0-.35-1.38C240.52,104.18,239.34,103.13,238,101.91Zm20.87,121.63c-3.7,0-7.26-.08-10.8,0-2.43.08-2.9.67-2.88,3.12,0,4.64-.56,9.31.56,13.89.11.46.58,1.18.89,1.19,3.27.09,6.54.05,9.89.05v-2.72H249.5v-2.27h7.8v-3.16h-7.8v-2.23h8.77v-2.51h-8.53v-2.18h9.18Zm-6.06-106.19c1,.5,1.82.84,2.56,1.26,2.44,1.4,2.56,1.59,1.35,4.11-.83,1.74-1.91,3.37-3.12,5.47l8.94-1.7c.36.6.45,2.16,2,.91a6.68,6.68,0,0,0-.17-.84c-1.8-5.34-5.9-8.1-11-9.73a1.84,1.84,0,0,0-1.06.09,17.92,17.92,0,0,0-7.72,4.72,11.38,11.38,0,0,0-3.07,5.94A40.08,40.08,0,0,0,252.86,129Zm-13.74,36.35c-.49,1.26-.84,2.39-1.36,3.43a2.4,2.4,0,0,0,.18,2.53c2.41,4.17,6.12,6.78,10.36,8.76,1.42.66,2.91,1.16,4.51,1.8v-8.59C247.77,160,243.43,157.12,239.13,153.71Zm13.71,23.68c0-1.35-.08-2.48,0-3.59s-.27-1.55-1.36-1.91c-5.52-1.79-10.47-4.49-14.06-9.23-.71-.93-1.29-2-1.93-3l-4.23,1.37C236.64,168.93,243.78,174.12,252.84,177.39Zm36.54,41.55c-7.24-4.76-15-5.58-23-5.15C273.34,218.14,280.78,220.23,289.38,218.95Zm-36.69-88c-.47,0-1,0-1.45-.08-3.07-.39-6.15-.68-9.18-1.25a2.64,2.64,0,0,0-2.7,1.09c-.28.32,0,1.19.13,1.77.23.83.65,1.61.89,2.43s.73,1,1.51,1a26.89,26.89,0,0,0,9.28-2C252.59,133.4,253.33,132.67,252.68,130.91Zm-12.55-3.7A15.46,15.46,0,0,1,249,116.79c1.06-.51,2.21-.84,3.29-1.3a1,1,0,0,0,.53-.64.79.79,0,0,0-.55-.56c-3.15-.06-6.27-.45-8.88,2.25a22.22,22.22,0,0,0-6,9.56Zm18.45-9.64a15.14,15.14,0,0,1,7.43,9.66l2.56-1.1c-.93-4.89-5.06-9.61-8.81-11.64-.75-.41-1.83-.19-2.76-.26l0,.32,2.17,1.45ZM242.15,303.23l.24.16a7.41,7.41,0,0,1,.8-.61c1.09-.62,2.17-1.26,3.29-1.81.7-.35,1.16-.06,1.44.7s.78,1.73,1.18,2.59l.58,0c.25-.65.9-1.63.68-1.91-1.8-2.28-2.21-5.05-3-7.7-.36-1.25-.68-2.52-1.06-3.93-1,.61-1.76,1.09-1.54,2.3a3.07,3.07,0,0,1,0,1.35c-.76,2.65-1.56,5.29-2.34,7.94C242.32,302.59,242.24,302.91,242.15,303.23Zm10-99.4A18.92,18.92,0,0,1,256,214.08c.17,1.72.72,2,2.78,1.52a74.42,74.42,0,0,0-1.34-8.86c-1.09-4-.72-3.37-4.36-3Zm12.63-69c.37-1,.67-2,1.06-2.89s-.26-1.43-.9-1.29a4.45,4.45,0,0,1-4-.57c-.14-.11-.45-.06-.67,0-1.42.28-2.83.59-4.52.94.23.81.24,2,.71,2.25A17.55,17.55,0,0,0,264.76,134.85ZM274.62,301c-3-2.91-3.13-6.94-4.92-10.41-.52.6-1.14,1.26-1.13,1.91a23.9,23.9,0,0,1-2,9.38c-.16.41-.27.84-.4,1.26l.31.18c1.35-1.63,2.8-3.09,5-3.42l1.78,3Zm-48.32-.33.24.28a7.3,7.3,0,0,1,1.44-.81,10.6,10.6,0,0,1,3.39-.71c.44,0,.83,1.23,1.23,1.9.11.19.13.51.28.61.31.19.91.47,1,.37.32-.35.77-1.08.63-1.27-2.13-2.89-2.46-6.41-3.51-9.67-.1-.32-.24-.62-.53-1.35-.6.85-1.35,1.41-1.33,1.94.11,2.37-.78,4.45-1.64,6.55A20.2,20.2,0,0,1,226.3,300.66Zm34.14-8.21.2.33c-.17.2-.34.4-.49.61a9,9,0,0,0-.45,9.2,2.53,2.53,0,0,0,3,1.2,3.45,3.45,0,0,0,2.06-3.09c-.33.26-.62.46-.87.69a1.72,1.72,0,0,1-2.74-.09,3.81,3.81,0,0,1-1.1-2.1,26.76,26.76,0,0,1,.52-4.94,1.93,1.93,0,0,1,2-1.65,3.38,3.38,0,0,0,2.83-1.8H260.7a2,2,0,0,0-2.22,2.23Zm13.71,130.87A7.11,7.11,0,0,0,269,426a3,3,0,0,0,0,4.18c1.73,2.17,4.5,2.47,7.53.81,2-1.08,3-2.93,2.58-4.67S276.92,423.32,274.15,423.32Zm-14.94.63c1.18.91,1.27.89,2.42.52a4.53,4.53,0,0,1,4.57.75,7.47,7.47,0,0,1-1.56,1.15c-1.4.53-2.85.9-4.27,1.38-1.59.54-2,1.07-1.65,2.46.49,2.06-.18,1.89,2.29,1.89.27,0,.55,0,.82,0l4.6-.27,0-.44a11.32,11.32,0,0,0-1.64-.33c-.91-.06-1.84.09-2.73-.05a7.08,7.08,0,0,1-1.79-.84c.45-.49.81-1.19,1.36-1.44,1.24-.55,2.63-.76,3.85-1.34a10,10,0,0,0,2-1.77,10,10,0,0,0-2-1.66A6.92,6.92,0,0,0,259.21,423.94Zm31.84-.3c-2.83-1.59-7.19.35-8,3.45-.7,2.7.66,4.43,3.46,4.51a6.35,6.35,0,0,0,4.84-2.15c1-1,.9-1.74-.47-2.2-1.93-.64-3.91-1.14-5.85-1.69a2.42,2.42,0,0,1,3.06-1.57C289.09,424.2,290.11,424.49,291.05,423.65ZM257.64,300.49l-.39.68a2.33,2.33,0,0,1-4.25,0,7.36,7.36,0,0,1,.25-7.3,2,2,0,0,1,1.6-.92c1.38.27,1.72-.55,2.16-1.5-2.33-.47-3.37-.11-4.48,1.64a9.83,9.83,0,0,0-1.05,8.51c.58,1.87,1.92,2.87,3.32,2.65A3.79,3.79,0,0,0,257.64,300.49ZM285,290.74c-1.37-.57-2.52-.63-3.49.45a8,8,0,0,0-1.21,7.95,2.06,2.06,0,0,0,2.33,1.45c1.1-.17,1.56-1,2.16-2-.37.06-.48,0-.54.09-.71.61-1.61.86-2.19.14A6.54,6.54,0,0,1,281,296.2a6.39,6.39,0,0,1,1.72-.77,14.89,14.89,0,0,0,1.44-.37,7.59,7.59,0,0,0,1.24-.93l-.19-.31-4.11.52C280.8,291.37,283.43,291.67,285,290.74Zm-58.88.43-.16-.61a6.37,6.37,0,0,0-2.44-.06,4.91,4.91,0,0,0-2.94,4.28c-.26,2,.11,3.94,1.89,5.25,1.09.79,1.92.53,2.6-.68a3.17,3.17,0,0,1-3.17-4.23c1.44,0,3,.89,4.61-.65l-4.5-.6C221.84,290.82,224.61,291.89,226.1,291.17ZM207.55,295a8.6,8.6,0,0,0,1.18,0c2.21-.43,4.31-.77,5.32,2.09.34,1,1.1.56,1.65,0a18.4,18.4,0,0,1-1.39-2.1c-.79-1.63-1.46-3.32-2.24-5-.14-.29-.6-.66-.82-.61-.39.08-1,.49-1,.73C210.39,292.18,209.16,293.48,207.55,295Zm86.28-4.62a5.84,5.84,0,0,0-1.47,4.21,2.09,2.09,0,0,0,1.7,2,4.22,4.22,0,0,0,4.19-2.7,15.86,15.86,0,0,1-2.12,1.21,1.82,1.82,0,0,1-2.63-1.34,3.29,3.29,0,0,1,2.36-3.47c1-.26,2-.65,3-1l-.14-.46c-2.06,1.09-4.87-.53-6.66,1.55l.11.41Zm-8,8.39c1.35.8,3,.38,4.52-1.07,2-2,1.61-3.47-1-4.41-.54-.2-.88-1-1.31-1.47a13.67,13.67,0,0,1,1.39-1,8.94,8.94,0,0,1,1.38-.51,2.76,2.76,0,0,0-3.87,2c-.33,1.22.1,1.72,2,2.28a.65.65,0,0,1,.25.1c.43.4,1.21.82,1.19,1.21a2.27,2.27,0,0,1-1,1.54,3,3,0,0,1-1.91.33A1.31,1.31,0,0,0,285.84,298.8Zm-43-184.55a9.81,9.81,0,0,0-1.61,0c-.59.1-1.41.16-1.68.55a23,23,0,0,0-3.78,10.07A26.79,26.79,0,0,1,242.81,114.26ZM267.94,135l.34.38c1-.8,2.53-1.47,2.73-2.42.39-1.86,0-3.89-.07-6l-3.23,1.64a5.9,5.9,0,0,0,.83.68c1.1.59,1.22,1.35.68,2.45S268.36,133.92,267.94,135Zm-32.7-8c-.08,1.42-.17,2.73-.21,4-.08,2.48.49,3.23,3.18,4.09-.26-.73-.47-1.35-.71-2-.32-.85-1-1.75-.9-2.52s1.07-1.4,1.66-2.12Zm44.59,304.43.65.31c.4-.43,1.12-.85,1.14-1.3.12-2.34.05-4.69.05-7.16l-1.84.53ZM240.17,302.89l.39.18a4.68,4.68,0,0,0,.63-1.43c.21-3.26.35-6.52.51-9.79a6.78,6.78,0,0,0-.08-.91C240.36,291.78,239.58,298.88,240.17,302.89ZM270.53,124.8a25.39,25.39,0,0,0-4-10.06c-.27-.38-1.07-.37-1.46-.49ZM219.89,298.39a4,4,0,0,0-.83-.32c-1.45-.17-2-.92-1.81-2.4.21-1.88.23-3.78.33-5.67l-.48-.15a6.44,6.44,0,0,0-.64,1.67c-.16,1.85-.26,3.72-.26,5.58,0,.47.35,1.24.69,1.34C217.82,298.68,218.83,299.71,219.89,298.39Zm8-82.94.16-.07,1.06-4.42-1.92-.9ZM267,153.82l-.57.25,2.06,4.35.31-.13Z" transform="translate(-27.28 -27.87)"/><path d="M203.63,345.08a14.05,14.05,0,0,1,7.68,8.88,13.66,13.66,0,0,1-3.59,14.09,4,4,0,0,0-1.22,2.45c-1.41,10.34-2.9,20.67-4.34,31a2.07,2.07,0,0,1-1.9,2c-5.17.85-10.3,2-15.51,2.48-6.26.54-12.58.66-18.87.61a117.27,117.27,0,0,1-24.11-3.07,2.07,2.07,0,0,1-1.87-2c-1-7.54-2.13-15.07-3.21-22.6-.44-3.07-.87-6.14-1.34-9.2a2.08,2.08,0,0,0-.56-1.16,14.16,14.16,0,0,1,3-23.17,6.11,6.11,0,0,0,.53-.35c-1.64-3.78-1.72-7.53.53-11.08a11,11,0,0,1,9.63-5.2,59.5,59.5,0,0,1,.53-7.12c2.18-11.28,15-17.4,25.27-12.12,1.61.83,1.75,1.86.39,3a5.56,5.56,0,0,0-2,5.63,5.94,5.94,0,0,0,4.33,4.63c3.83,1.29,7.62,2.71,11.38,4.2a28.79,28.79,0,0,0,6.08,1.8,11.07,11.07,0,0,1,9.42,15.45C203.84,344.5,203.77,344.71,203.63,345.08Zm-32.19-33.63a39.56,39.56,0,0,0-4.75-.71,14.73,14.73,0,0,0-14.9,16.72,4.24,4.24,0,0,0,2.34,3.53c9,4.88,18.61,6.11,28.63,4.54,1.17-.18,2-.06,2.37,1.15.26.9-.52,1.7-1.85,1.91-1.17.18-2.35.3-3.53.41-9.89.91-19.31-.63-27.87-5.85A7.68,7.68,0,0,0,140.49,338a8.16,8.16,0,0,0,1.41,6.73c.86,1.27.57,2.08-.85,2.63-.3.12-.61.2-.9.32A11.07,11.07,0,1,0,150,367.46c2.06-1.26,2.06-1.26,3.84.35a25.43,25.43,0,0,0,34.28.09c1.87-1.67,1.87-1.67,4-.37A11.07,11.07,0,1,0,202.61,348a1.11,1.11,0,0,0-1.52.25,29.3,29.3,0,0,1-10.19,6.51c-10.12,3.95-20.43,3.53-30.81,1.23-1-.23-1.71-.83-1.44-1.93s1.17-1.29,2.27-1.05c7.69,1.7,15.42,2.33,23.2.66,5.67-1.22,10.86-3.46,14.83-7.88,1.57-1.75,2.86-3.7,2.78-6.21a8.06,8.06,0,0,0-9.83-7.5,3.33,3.33,0,0,1-2.1-.41c-1.43-.79-2.66-2-4.15-2.59-3.16-1.27-6.42-2.29-9.66-3.36a8.82,8.82,0,0,1-6.1-6.12A9,9,0,0,1,171.44,311.45Zm-16.91,91c0-.43,0-.79,0-1.15q-.57-8.94-1.14-17.87-.39-5.93-.8-11.86c-.09-1.29-.59-1.55-1.76-1a17.29,17.29,0,0,1-2.53,1c-.81.23-1.13.62-.94,1.45a10.84,10.84,0,0,1,.09,1.23c.81,8.11,1.64,16.22,2.43,24.33.35,3.64.52,3.85,4.26,4A2.4,2.4,0,0,0,154.52,402.44Zm40.27-30.5a13.84,13.84,0,0,0-2.1-.68c-1-.15-1.86-1.69-2.73-.73-.61.67-.55,2-.62,3.09-.46,6.42-.87,12.83-1.29,19.25-.21,3.17-.41,6.35-.62,9.75l4.38-.66Zm-56-.63c0,.49,0,1,.1,1.46q1.63,11.62,3.28,23.25c.19,1.35,0,3,.71,4s2.44,1,3.72,1.4c.07,0,.17,0,.41-.11l-2.88-28.9Zm41.22,32c1.17-.09,2.24-.22,3.32-.25.77,0,1-.34,1-1.08.52-8.1,1.07-16.19,1.61-24.29.09-1.43.15-2.85.22-4.36-1.56.74-3,1.47-4.43,2.07a1.43,1.43,0,0,0-1,1.54c-.23,7.61-.51,15.23-.76,22.84C180,400.92,180,402.05,180,403.33ZM195,401.41c1.13-.22,2-.41,2.91-.55a1.41,1.41,0,0,0,1.42-1.41c.73-5.6,1.56-11.18,2.36-16.77.54-3.77,1.07-7.55,1.62-11.39l-5.43,1.08Zm-33,1.94c0-.42.06-.64.05-.86-.14-5-.27-9.93-.43-14.9-.12-3.55-.27-7.1-.43-10.66,0-.42-.09-1.07-.35-1.2-1.58-.83-3.22-1.54-5-2.38l2,29.6Zm7.45-25.74-5.13-.74.9,26.68h4.23Zm3.25,0v26a22.26,22.26,0,0,1,2.53,0c1.38.16,1.76-.37,1.8-1.74.19-7.93.49-15.87.75-23.8,0-.39,0-.78,0-1.23Z" transform="translate(-27.28 -27.87)"/><path d="M237.13,431.88c-.61-2.75-3.13-3.25-5.08-4.43-1,1.44.26,3.75-1.8,4.57,0-2.73,0-5.41,0-8.07,0-.29.7-.56,1.26-1,.59,3.22,3,4.13,5.48,5.52,0-1.29.06-2.35,0-3.4s.46-1.77,1.68-2c0,1.75,0,3.45,0,5.15,0,.64,0,1.28-.06,1.92C238.62,431.35,238.48,431.52,237.13,431.88Z" transform="translate(-27.28 -27.87)"/><path d="M227.12,428.36c.95-1.79-1-4.19,1.83-5.36,0,2.46,0,4.76,0,7.05a1.68,1.68,0,0,1-1.24,1.85,1.32,1.32,0,0,1-.34,0c-.53-2.78-3.09-3.25-5.09-4.47-.92,1.45.19,3.64-2.1,4.77l.29-6.41a11.2,11.2,0,0,1,.11-1.77,1,1,0,0,1,.65-.66.93.93,0,0,1,.77.47C222.79,426.43,225.11,427.19,227.12,428.36Z" transform="translate(-27.28 -27.87)"/><path d="M219.14,431.07c-1.21,1.11-1.76,1.23-2.75-.05a3.12,3.12,0,0,0-3.6-1c-1.44.34-2.84.87-4.26,1.32l-1.41.47a32.29,32.29,0,0,0,2.7-3.73c.57-1.08.66-2.4,1.14-3.54a2.21,2.21,0,0,1,1.28-1.09,1.49,1.49,0,0,1,1.26.55c1,1.48,1.9,3.1,3,4.54A23.4,23.4,0,0,0,219.14,431.07Zm-4.9-2.58-1.5-2.36-2.95,4Z" transform="translate(-27.28 -27.87)"/><path d="M245.12,431.94c-2.86,0-4.73-1.2-5.34-2.85-.44-1.19.18-2.81,1.54-4a7.28,7.28,0,0,1,5-1.78,6,6,0,0,1,1.34.22,3.66,3.66,0,0,1,2.93,2.89,3.78,3.78,0,0,1-1.49,3.73A6.88,6.88,0,0,1,245.12,431.94Zm4-3.94a4,4,0,0,0-3.82-4.13,4,4,0,0,0-3.89,3.81c0,2,2.06,3.56,4.72,3.54A3.08,3.08,0,0,0,249.09,428Z" transform="translate(-27.28 -27.87)"/><path d="M370,105.23c2.66.06,5,.09,7.28.17a34.06,34.06,0,0,1,4.35.3c2.7.45,3.66,2,3.74,4.77.1,3.5.51,7,.89,10.49.87,7.89,1.13,15.73-1.26,23.44A21.76,21.76,0,0,1,371.51,159c-1.35.52-1.52,1.25-1.18,2.36a15.38,15.38,0,0,0,1,2.38,5,5,0,0,1-.82,6.15c-2.13,2.31-4.94,3.39-7.83,4.26a60.55,60.55,0,0,1-34.86-.59,23.48,23.48,0,0,1-5.71-3.12,4.64,4.64,0,0,1-1.8-5.81c2-4.2,2-8.66,1.93-13.12-.1-6.75-.48-13.5-.45-20.25,0-6,.53-12,.69-18,.11-4.35-.53-8.5-3.4-12.1-3.5-4.37-1.63-14.6,5.66-16.32a4.18,4.18,0,0,0,3.07-2.35,9.18,9.18,0,0,1,4.43-3.73,17.27,17.27,0,0,1,12.64-1A9.21,9.21,0,0,1,350,81.22a1.5,1.5,0,0,0,1.9.69c4-1,7.8-.35,11,2.51a5.9,5.9,0,0,1,1.55,1.88,2.42,2.42,0,0,0,2.29,1.47c6,.85,8.79,6.79,5.72,12-.55.94-1.18,1.85-1.66,2.83A19.19,19.19,0,0,0,370,105.23ZM349.26,86.93c-1.7-4.24-5.41-6.42-10.44-6.2-4.69.21-7.37,2.42-8.84,7.32a7,7,0,0,0-5.89,1.32c-4.07,3.19-3.75,12.29,2,14.4.85.31,1.67.73,2.5,1.09,3,1.29,5.21,3.46,5.77,6.65a36.19,36.19,0,0,1,.31,8.41c-.25,4.09-.78,8.16-1.3,12.22-.21,1.61.56,2.61,1.54,3.7,1.62,1.81,3.52,1.47,5.41.86a3.66,3.66,0,0,0,2.49-3.86,41.26,41.26,0,0,0-.4-5.17c-.55-4.1-1.61-8.15-1-12.35.54-3.55,2.1-6.54,5.49-8a77,77,0,0,1,9-2.77c3.06-.86,6.18-1.51,9.21-2.47A5.87,5.87,0,0,0,369,97.27c.76-3.73-1.59-6.42-5.37-6.14l-1,.06C361.5,85.71,354.48,83.61,349.26,86.93Zm21,62.05a9.33,9.33,0,0,0,6.17-3.85,16.74,16.74,0,0,0,3.1-9.19c.2-4.77.1-9.55,0-14.33a61.7,61.7,0,0,0-.81-7.19c-.08-.56-.55-1.45-.94-1.5a32.94,32.94,0,0,0-5.44-.36c-1.57,0-2.05.69-2.05,2.24q0,16.36,0,32.71Zm-24.92-31.05a13.44,13.44,0,0,0,1.4.06c2.5-.16,5-.25,7.49-.53a38.75,38.75,0,0,0,11.41-3c.34-.15.8-.54.82-.85.14-1.9.23-3.82.21-5.72a9.4,9.4,0,0,0-.48-2.15c-2.62.71-4.93,1.31-7.23,2a84.72,84.72,0,0,0-9.36,2.81C346.47,111.74,345.37,114.56,345.29,117.93Zm-14.23-1.6c-.08-4.49-2.6-8.18-5.55-8.39,0,1.82,0,3.64,0,5.46a1.23,1.23,0,0,0,.58.91C327.69,115,329.29,115.61,331.06,116.32Z" transform="translate(-27.28 -27.87)"/><path d="M119.22,231l.67,2.63,3.1-1.25c2-.83,3.09-.28,3.55,1.87a13.44,13.44,0,0,1-.53,7.4,3.33,3.33,0,0,0,.48,3.58,9.19,9.19,0,0,1,1.53,4.43c.51,4.51.51,9-1.54,13.26a7.17,7.17,0,0,1-7.8,4.24c-2-.23-2.86-1.1-2.79-3.15.21-6.24.51-12.48.71-18.72.11-3.36.48-6.73-.33-10.07C115.89,233.66,117.31,231.7,119.22,231Zm6.93,24.35-.42-.09c0-.82.06-1.65,0-2.46-.26-3-1.7-5-3.88-5.53-1.9-.45-2.95.22-3.05,2.15-.21,3.73-.37,7.47-.43,11.2a2.78,2.78,0,0,0,.89,2c1.6,1.23,4.62.49,5.35-1.4A51.36,51.36,0,0,0,126.15,255.32Zm-7.15-10,.47.21a38.7,38.7,0,0,0,4.34-4.57c1.72-2.49.18-5.31-2.77-5.71-1-.13-1.44.12-1.5,1C119.33,239.25,119.18,242.27,119,245.29Z" transform="translate(-27.28 -27.87)"/><path d="M403.89,263.47c.42-6.76-2.67-12-7.17-17.16-.07,4.22-.09,8.08-.23,11.92a50.65,50.65,0,0,1-.57,5.7,6.78,6.78,0,0,1-.91,1.85l-.36-.1c-.06-.57-.16-1.13-.16-1.7q-.09-15-.16-30c0-1-.1-2,0-3a2.06,2.06,0,0,1,1.92-2,30,30,0,0,0,7.4,19.65c0-.64.12-1.06.11-1.48-.1-4.79-.29-9.58-.28-14.37a22.24,22.24,0,0,1,.79-4.8,2.67,2.67,0,0,1,1.29-1.46,9.34,9.34,0,0,1,.27,1.51c.06,3.42.07,6.85.12,10.27.08,6.39.22,12.78.23,19.17a17.25,17.25,0,0,1-.67,4.15,8.26,8.26,0,0,1-1.07,1.92Z" transform="translate(-27.28 -27.87)"/><path d="M378.71,232.43c.77,3.54,1.37,7.07,2.32,10.51s3.32,6.2,5.19,9.18l.38-.08c0-1.87,0-3.75,0-5.62-.06-4.1-.21-8.21-.17-12.31a5.68,5.68,0,0,1,2.13-4.32c.1,2.45.24,4.52.26,6.58.07,7.26.06,14.51.18,21.77,0,2.42.28,4.83-.69,7.14a6.21,6.21,0,0,1-1.32,1.91c.17-6.87-2.88-12.28-7.52-17.18,0,1.88.05,3.76,0,5.64-.12,3.59-.26,7.19-.5,10.78a2.85,2.85,0,0,1-1.68,2.73c0-2.42,0-4.62,0-6.83q0-11.44,0-22.87c0-1.5-.14-3-.13-4.51C377.14,233.73,377.51,232.7,378.71,232.43Z" transform="translate(-27.28 -27.87)"/><path d="M266.43,247.62c-1,0-2,0-3,0a1.94,1.94,0,0,0-2.19,1.62,4.56,4.56,0,0,0,.43,4.07c1.28,1.67,2.7,3.24,4.06,4.85l.34-.18v-5.1c1.36,1.68,2.71,3.19,2.7,5.56,0,6.84.18,13.68.24,20.53,0,1.38-.22,2.76-.34,4.14l-.48.07a20.92,20.92,0,0,0-1.08-2.24c-.25-.4-.71-.9-1.12-.94a8.4,8.4,0,0,1-7.32-5.21,23.9,23.9,0,0,1-.91-16.43,3.65,3.65,0,0,1,1.06-1.86,2.09,2.09,0,0,0,.65-2.65,14.94,14.94,0,0,1-.61-7.94c.43-1.9,1.25-2.43,3.14-2A5.23,5.23,0,0,1,266.43,247.62Zm.18,21.41h.08c-.11-2.36-.21-4.72-.33-7.08a2.17,2.17,0,0,0-2-2.31,3.49,3.49,0,0,0-4.3,2.38,14.83,14.83,0,0,0-.28,9.51c.74,2.71,1.86,4,4.73,3.93,1.53-.05,2-.35,2.07-1.9S266.62,270.54,266.62,269Z" transform="translate(-27.28 -27.87)"/><path d="M211.44,284.15c0-4.43,0-8.39,0-12.35,0-2.92.07-5.84.08-8.76,0-4.29,0-8.59.06-12.88,0-1.73.11-3.46.24-5.19a3.66,3.66,0,0,1,.52-1.8c.32-.44,1-.63,1.5-.93a6.87,6.87,0,0,1,.37,1.45,14,14,0,0,1-.18,1.93l.39.24c.59-.44,1.2-.85,1.76-1.33,2.54-2.19,5-2,6.56.94a21.66,21.66,0,0,1,2.24,6.66,38,38,0,0,1-.6,16.28,19,19,0,0,1-5.36,8.44c-.68.68-2.22.76-3.33.67-1.49-.13-2.17.27-2.38,1.77a16.91,16.91,0,0,1-.85,3.16A10.39,10.39,0,0,1,211.44,284.15Zm2.5-23.25h-.25c0,3.29,0,6.58,0,9.86a3.24,3.24,0,0,0,2.27,3.38c1.64.45,3.32.59,4.48-1a9.88,9.88,0,0,0,1.46-2.75c1.59-5,1.41-10.17.69-15.31a17.64,17.64,0,0,0-2.53-7.58c-1.42-2.11-3.3-2.28-4.93-.34a4.58,4.58,0,0,0-1.15,2.53C213.87,253.42,213.94,257.16,213.94,260.9Z" transform="translate(-27.28 -27.87)"/><path d="M350.6,273c0-1.89,0-3.78,0-5.67,0-2.87.15-5.74.16-8.62,0-5.84,0-11.69,0-17.53a6.42,6.42,0,0,1,2.18-4.55l.21,3.45c.68-.81,1.17-1.43,1.69-2a8.74,8.74,0,0,1,1.25-1.24c2.38-1.76,4.51-1.23,5.81,1.42a22,22,0,0,1,1.83,8.35c.47,6.92-.51,13.54-4.11,19.61a11.27,11.27,0,0,0-.63,1.68l3.06-.37a3.67,3.67,0,0,1-2.26,4.24c-1.83.42-3.64.63-5.13-.84-.42-.41-1-1.17-.84-1.55.35-1,.43-2.5,1.9-2.5,2,0,2.94-1.1,3.66-2.82a28.36,28.36,0,0,0,.95-20.39,13.12,13.12,0,0,0-1.15-2.61c-1.23-2.07-3-2.19-4.49-.28a9.23,9.23,0,0,0-1.79,5.77c0,3.93,0,7.85,0,11.78,0,3.56-.06,7.12-.1,10.67A4.44,4.44,0,0,1,350.6,273Z" transform="translate(-27.28 -27.87)"/><path d="M151,272.59c0-1.62-.05-3.24,0-4.85.24-6,.53-12,.77-18,.12-3.05.12-6.11.31-9.16a5.35,5.35,0,0,1,2.35-3.93v3.92c.71-.63,1.18-1.1,1.69-1.51,2.67-2.18,5.34-1.69,6.76,1.46a20.41,20.41,0,0,1,1.55,5.49,33.74,33.74,0,0,1-1.22,16.33,51,51,0,0,1-3,5.93c-.24.46-.45.93-.78,1.63.91.12,1.56.23,2.21.3,1,.11,1.39.48,1,1.53-.94,2.41-3.48,3.07-5.86,1.45a12.08,12.08,0,0,1-1.66-1.42c-1.27-1.26-1.34-1.68-.21-3.1a2,2,0,0,1,1.53-.66c2.5.2,2.5.24,3.62-2,3.6-7.21,3.39-14.57.8-22a7.19,7.19,0,0,0-.6-1.22c-.57-1-1.27-1.89-2.5-1.87a2.83,2.83,0,0,0-2.65,2.06,17,17,0,0,0-1,4.61c-.31,6.88-.42,13.77-.71,20.65a13.77,13.77,0,0,1-.95,3.66c-.13.37-.61.63-.93.93Z" transform="translate(-27.28 -27.87)"/><path d="M101.14,263.7c0-1.88-.06-3.54,0-5.2.23-5.19.53-10.37.78-15.56.19-3.87.32-7.74.51-11.6A4.27,4.27,0,0,1,104.8,228v3.61c.62-.51,1.11-.94,1.62-1.33,2.45-1.89,4.85-1.45,6.44,1.21a17.4,17.4,0,0,1,2.07,7.86c.37,5,.3,10.06-1.58,14.83a33.31,33.31,0,0,1-3,5.47c-.89,1.42-.85,1.6.76,2.06.64.18,1.89-.25,1.72,1.17a2.67,2.67,0,0,1-2.57,2.56c-2.54-.11-4.29-1.48-5.8-3.37-.69-.87-.1-1.51.33-2.06a2.15,2.15,0,0,1,1.54-.87c2.73.38,2.8.43,4.05-2.14,3.59-7.35,3.18-14.78.42-22.25a5.42,5.42,0,0,0-.94-1.5c-1.23-1.49-3.14-1.49-4.11.17a9.51,9.51,0,0,0-1.35,3.94c-.34,4.68-.44,9.37-.65,14.06-.13,3-.27,5.91-.44,8.87A3.65,3.65,0,0,1,101.14,263.7Z" transform="translate(-27.28 -27.87)"/><path d="M317.3,267.91c-3.67,1.36-6.68,3.23-8.34,6.81a15,15,0,0,1-1.74,2.4l-.52-.27.8-3.48c1.09-4.78,2.36-9.53,3.19-14.36a74.6,74.6,0,0,0,1-11.14c0-1.74-.27-3.44.85-4.94.48-.64,1-1.23,1.54-1.85l.43,0c.3,1.34.6,2.68.91,4,1.64,7,3.18,14,5,21,.48,1.86,1.76,3.52,2.67,5.27.12.23.3.51.26.73a8.8,8.8,0,0,1-2.78,5Zm-6.73,1.26.16.17c1.53-1.83,3.07-3.65,4.58-5.49a2.62,2.62,0,0,0,.49-2.89,18.93,18.93,0,0,1-.68-3.19c-.28-1.33-.58-2.66-.95-4.31Z" transform="translate(-27.28 -27.87)"/><path d="M302.79,277.77a27,27,0,0,1-.79-2.65,68.34,68.34,0,0,0-4.47-14.44c-.08-.18-.19-.35-.44-.8-.51,6.53.71,12.92-1.65,18.92l-.55,0a7.12,7.12,0,0,1-.26-1.41q.23-16.35.52-32.7a3,3,0,0,1,1.87-3V257c2.6-4.89,2.58-10.66,5.27-15.46l.6.13a8.45,8.45,0,0,1,0,2c-.88,3.48-1.84,6.94-2.76,10.41a3,3,0,0,0-.16,1.44c1.34,4.91,2.7,9.82,4.14,14.7a15.73,15.73,0,0,0,1.41,2.56c.15.3.35.75.23,1-.69,1.4-1.46,2.75-2.2,4.12Z" transform="translate(-27.28 -27.87)"/><path d="M349.45,253.06c-.23,6.84-.89,12.72-4.21,17.89a11.37,11.37,0,0,1-3.42,3.21c-1.3.84-2.52.41-3.45-.86a12,12,0,0,1-1.36-2.36,30.73,30.73,0,0,1-2.05-17c.64-4.3,1.6-8.51,4.09-12.18a10.65,10.65,0,0,1,2.31-2.49,3.09,3.09,0,0,1,4.52.48c1.82,2,2.47,4.45,2.9,7S349.29,251.51,349.45,253.06Zm-2.32,5.21h.38c-.37-3.25-.57-6.53-1.19-9.74a24.73,24.73,0,0,0-2.25-6.23c-.91-1.81-2.61-1.75-3.8-.08a8.88,8.88,0,0,0-1,1.79,34.33,34.33,0,0,0-2.15,15.28,20.62,20.62,0,0,0,1.94,8.31c.76,1.48,1.69,2.84,3.52,3.15,1.16.2,2,.06,2.53-1.29C346.46,265.83,347.74,262.24,347.12,258.26Z" transform="translate(-27.28 -27.87)"/><path d="M180.64,255.74a33.87,33.87,0,0,1-2.32,13A19.1,19.1,0,0,1,175,274c-2.12,2.32-4.77,1.87-6.23-.9a28.18,28.18,0,0,1-3-11.4,31.92,31.92,0,0,1,1.91-14,24.15,24.15,0,0,1,3.05-5.59c2.22-2.94,5.12-2.66,7.07.44a19,19,0,0,1,2.42,7.76C180.47,252.09,180.51,253.92,180.64,255.74Zm-2.11,3.55c-.25-2.67-.39-5.36-.77-8a18,18,0,0,0-2.58-7.85c-1.09-1.58-2.52-1.66-3.64-.11a11.69,11.69,0,0,0-1.42,2.63,31.81,31.81,0,0,0-1.81,14.66,38.18,38.18,0,0,0,1.93,8,5.39,5.39,0,0,0,3.42,3.52,1.6,1.6,0,0,0,2.34-.95A25.5,25.5,0,0,0,178.53,259.29Z" transform="translate(-27.28 -27.87)"/><path d="M100.56,241.47c-.1,5.81-.64,10.77-3,15.32A13.17,13.17,0,0,1,95,260.15c-2.22,2.11-5.07,1.68-6.25-1.14a41.24,41.24,0,0,1-2.66-8.7,30.86,30.86,0,0,1,2.57-19.16,13.26,13.26,0,0,1,2.67-3.58c1.95-1.91,4.23-1.64,5.87.53,1.93,2.56,2.58,5.59,3,8.67C100.44,238.58,100.48,240.41,100.56,241.47Zm-12.4,2.2c0,.73,0,1.46,0,2.19a22.75,22.75,0,0,0,2.21,9.37c.87,1.66,2,3.08,4,3.41a1.23,1.23,0,0,0,1.05-.44c.84-1.86,2-3.71,2.29-5.67A43.36,43.36,0,0,0,96.68,233a12.73,12.73,0,0,0-1.74-3.66c-1-1.41-2.35-1.35-3.39,0A11.7,11.7,0,0,0,90.09,232,29.83,29.83,0,0,0,88.16,243.67Z" transform="translate(-27.28 -27.87)"/><path d="M419.62,242.14c0,1.57.05,3.15,0,4.72-.18,4.65-.38,9.29-.64,13.93a5.11,5.11,0,0,1-2.32,4.06l.59-9-.4-.16a13.3,13.3,0,0,1-.85,1.38,15.67,15.67,0,0,1-2.3,2.66,2.54,2.54,0,0,1-3.81-.68,13.09,13.09,0,0,1-2.38-6.89,50.82,50.82,0,0,1,2-20.53,25.91,25.91,0,0,1,2.59-5.23,4.56,4.56,0,0,1,4.23-2.07,1.38,1.38,0,0,1,1.46,1.8c-.36,2.37-1.57,3.15-3.75,2.36a1.67,1.67,0,0,0-2.31,1.09,58.53,58.53,0,0,0-1.88,6A28.5,28.5,0,0,0,410,250.4a9,9,0,0,0,1.59,3.11c1.14,1.44,2.74,1.42,3.72-.18a19.07,19.07,0,0,0,1.77-4.67c.48-1.65.7-3.38,1.14-5a7,7,0,0,1,.95-1.62Z" transform="translate(-27.28 -27.87)"/><path d="M324.69,280.76a8.73,8.73,0,0,1-.23-1.37c0-2.6,0-5.2-.06-7.8-.06-8.67-.17-17.33-.15-26a38.51,38.51,0,0,1,.76-6.2,5.39,5.39,0,0,1,1-1.63l.47.12.28,2.26c.14,0,.26,0,.29-.1.51-.89.86-2.22,2.15-1.9a13.39,13.39,0,0,1,4.17,1.83c.87.59,0,2.66-1.17,2.9a5.78,5.78,0,0,1-2.16,0c-1.78-.34-2.31-.23-2.77,1.48a27.21,27.21,0,0,0-.67,5.06c-.1,1.31,0,2.64,0,4,0,1.14.51,1.7,1.72,1.36,1.43-.41,2.87-.79,4.32-1.19.49,3.69-1.12,5.33-3.6,5.12-2.08-.18-2.42.31-2.4,2.46.06,5,.12,10,.22,15,0,1.86-1.12,3.15-1.81,4.67Z" transform="translate(-27.28 -27.87)"/><path d="M282.36,241.23l.24,2.4a5.61,5.61,0,0,0,.53-.67c.75-1.4,1.54-1.73,3-1.11.84.36,1.62.83,2.42,1.26a1.58,1.58,0,0,1,.83,2.07,1.66,1.66,0,0,1-1.89,1.39,21,21,0,0,0-2.42-.34c-.53,0-1.36.22-1.53.59a12,12,0,0,0-1.19,3.72,50.55,50.55,0,0,0,0,5.89c0,1.49.34,1.82,1.81,1.63s2.83-.56,4.44-.89a17.59,17.59,0,0,1-.14,2.28c-.4,2-1.54,2.86-3.61,2.66s-2.52.19-2.51,2.28c0,5,0,10,.18,14.92.05,1.91-1.11,3.15-1.81,4.66l-.39,0a9.33,9.33,0,0,1-.24-1.48q0-7.26,0-14.52c0-6.62,0-13.25.13-19.87a33.44,33.44,0,0,1,.76-5.52c.1-.53.62-1,.95-1.48Z" transform="translate(-27.28 -27.87)"/><path d="M366.88,248.7l9.55-1.91c-.4,1-.63,1.79-1,2.5-1.22,2.42-3.63,2.56-5.88,3a4.93,4.93,0,0,1-1,.09c-1.17,0-1.64.66-1.59,1.74.14,2.91.31,5.83,1.55,8.54a9.16,9.16,0,0,0,1.08,1.89c1.33,1.68,2.68,2,4,.33a1.53,1.53,0,0,1,1-.52,11.37,11.37,0,0,1-.5,1.92c-.37.83-1,1.55-1.32,2.38a2.59,2.59,0,0,1-4.57.22,23,23,0,0,1-2.51-6.11A40.85,40.85,0,0,1,368,238.65a13.6,13.6,0,0,1,1.09-2c1.75-2.72,3.18-3.1,6.2-1.7-.26,2.19-.85,2.94-3,3.1a3.53,3.53,0,0,0-3.64,3C368.11,243.42,367.53,245.88,366.88,248.7Z" transform="translate(-27.28 -27.87)"/><path d="M236,274.6a7.1,7.1,0,0,1-2.65,5.06c-.76.72-2.8.15-3.45-1.11a26,26,0,0,1-2.61-6.51,39.46,39.46,0,0,1,1.33-20.88,21.85,21.85,0,0,1,3-5.59,3.56,3.56,0,0,1,5.42-.11,1.14,1.14,0,0,1,.1,1.09,4.31,4.31,0,0,1-1.64,1.58,5.55,5.55,0,0,1-2.44,0,1.86,1.86,0,0,0-2.11,1.31,22.7,22.7,0,0,0-2,8.3h8.71c.24,1.61-1.09,3.7-2.51,3.84a32.37,32.37,0,0,1-5,.14c-1-.05-1.42.16-1.44,1.1A22.69,22.69,0,0,0,230.39,273a9.24,9.24,0,0,0,.9,1.53c1.22,1.69,2.19,1.83,3.86.61C235.33,275,235.52,274.88,236,274.6Z" transform="translate(-27.28 -27.87)"/><path d="M210.4,267.08c-.08,4.21-1.42,7.88-4.73,10.63-1.59,1.32-3.37.68-5,0a3.15,3.15,0,0,1-2.06-3.25,4.74,4.74,0,0,1,1.5-2.29c.12-.13,1.1.22,1.35.58,1.11,1.55,2.26,2.14,4.08,1.73a3.31,3.31,0,0,0,2.43-3c.72-3.94-.07-7.49-3.27-10.14-3.84-3.18-4.19-7.23-2.87-11.55a28.5,28.5,0,0,1,3-5.9,3.05,3.05,0,0,1,1.85-1.29,2.65,2.65,0,0,1,2.22.5,3,3,0,0,1,.05,2.4,2.12,2.12,0,0,1-1.61.92c-1.06.08-2.43-.54-3,.65a10.84,10.84,0,0,0-.92,4.16,7.68,7.68,0,0,0,2.94,6.21C209.35,260,210.43,263.29,210.4,267.08Z" transform="translate(-27.28 -27.87)"/><path d="M131.49,233.09a14.66,14.66,0,0,1,.52,1.76c.91,5.33,1.79,10.67,2.68,16,0,.16.13.31.52.52.4-1.74.81-3.48,1.2-5.22.64-2.84,1.26-5.68,1.93-8.51a5,5,0,0,1,.69-1.77,6.08,6.08,0,0,1,1.37-1.08,5.4,5.4,0,0,1,.15,1.67c-1.58,6.77-3.33,13.5-4.76,20.29-.54,2.55-.19,5.28-.56,7.89a23.15,23.15,0,0,1-1.6,4.69c-.08.21-.4.32-.78.6,0-2.17-.12-4.16,0-6.12.46-6.25-.7-12.33-1.77-18.43-.49-2.78-1.17-5.54-1.4-8.34-.11-1.28.67-2.63,1-3.94Z" transform="translate(-27.28 -27.87)"/><path d="M197.34,274a1.41,1.41,0,0,1-.05.47c-.6,1.05-1,2.79-1.87,3-1.49.38-3.23-.08-4.83-.38-.32-.06-.68-1-.68-1.55,0-4.61.18-9.21.28-13.82.13-5.52.2-11,.43-16.56a13,13,0,0,1,1.08-3.34l.67.11c0,.49,0,1,0,1.48q-.18,13.9-.36,27.8c0,2,.36,2.38,2.35,2.5C195.34,273.78,196.33,273.92,197.34,274Z" transform="translate(-27.28 -27.87)"/><path d="M183.88,241c0,1.35,0,2.51,0,3.66q-.18,10.46-.37,20.91c0,1.73-.13,3.46-.15,5.18a1.93,1.93,0,0,0,2,2.18c1.09.1,2.17.23,3.64.39-.65,1.21-1.2,2.3-1.82,3.35a.87.87,0,0,1-.7.3,29.7,29.7,0,0,1-4.06-.52,1.72,1.72,0,0,1-1-1.28c.09-6.78.27-13.57.41-20.35.06-3.1.07-6.2.12-9.3C182,243.1,182.34,242.27,183.88,241Z" transform="translate(-27.28 -27.87)"/><path d="M240.78,244.28c.05.82.13,1.44.12,2q-.12,13.69-.25,27.38c0,1.94.43,2.38,2.4,2.41,1,0,1.91,0,3.28,0-.68,1.35-1.2,2.47-1.82,3.52-.13.23-.63.34-1,.35-1.14,0-2.28,0-3.42,0-1,0-1.53-.46-1.49-1.5.09-2.6.22-5.19.24-7.79.06-7.31.08-14.61.12-21.92A5.44,5.44,0,0,1,240.78,244.28Z" transform="translate(-27.28 -27.87)"/><path d="M390.55,264.86a11.2,11.2,0,0,1-.25-1.66q0-14.09,0-28.18a5.75,5.75,0,0,1,2.33-5.05c0,.86-.1,1.44-.1,2,0,8.71,0,17.41,0,26.12a37.59,37.59,0,0,1-.63,5.49c-.08.48-.52.9-.8,1.34Z" transform="translate(-27.28 -27.87)"/><path d="M293.2,243.41c-.15,4.09-.37,8.18-.43,12.27-.09,6.11-.07,12.22-.12,18.33a5.84,5.84,0,0,1-1.81,3.92,9.33,9.33,0,0,1-.34-1.64c.08-9.34.14-18.69.3-28a13.16,13.16,0,0,1,.88-3.81c.17-.51.76-.87,1.16-1.3Z" transform="translate(-27.28 -27.87)"/><path d="M97,221.4a8,8,0,0,1-.37,1.8,2,2,0,0,1-1,1c-.23.07-.93-.55-1-.91a22.81,22.81,0,0,1-.07-4c0-.35.63-.93.94-.92s.8.54,1,.94A12.3,12.3,0,0,1,97,221.4Z" transform="translate(-27.28 -27.87)"/><path d="M342.18,233.23a12.74,12.74,0,0,1,.51-2,1.37,1.37,0,0,1,.93-.78c.32,0,.93.46.94.74a30.33,30.33,0,0,1-.07,4.23,1.2,1.2,0,0,1-.94.72,1.39,1.39,0,0,1-.93-.8A11.8,11.8,0,0,1,342.18,233.23Z" transform="translate(-27.28 -27.87)"/><path d="M341.26,233.79a13.16,13.16,0,0,1-.69,2.24c-.46.93-1.31.88-1.71-.08a5.12,5.12,0,0,1,.06-4.37c.15-.31.61-.71.87-.67a1.47,1.47,0,0,1,1,.76A12.29,12.29,0,0,1,341.26,233.79Z" transform="translate(-27.28 -27.87)"/><path d="M93.25,220.54c-.14,1.63-.8,3.07-1.47,2.85-1.29-.41-1.31-1.65-1.35-2.71a6.53,6.53,0,0,1,.44-2.51c.35-.9,1.18-.93,1.61-.07A15.14,15.14,0,0,1,93.25,220.54Z" transform="translate(-27.28 -27.87)"/><path d="M385.17,315.27c-1.24,9.29-2.53,18.58-5.71,27.47a42,42,0,0,1-2.25,4.66,2.06,2.06,0,0,1-2.12,1.12c-5.84-.05-11.69,0-17.53,0-2.3,0-3.91,1.11-4.35,3-.49,2.05.31,3.65,2.43,4.8,2.28,1.23,4.57,2.44,6.89,3.68-3.31,3.26-25.9,11.11-32.41,11.26l9.44-10q20.15-21.37,40.34-42.7c1.37-1.44,3.3-2.35,5-3.51Z" transform="translate(-27.28 -27.87)"/><path d="M374.37,321.42q-23.14,21.5-44.95,44.19s-.14,0-.48.14c1.86-3,3.5-6,5.38-8.74,2.95-4.33,5.82-8.75,9.16-12.77,4-4.8,9.1-8.42,14.23-11.93s10.58-7,15.88-10.45C373.84,321.7,374.11,321.57,374.37,321.42Z" transform="translate(-27.28 -27.87)"/><path d="M158.31,129c0,.91.05,1.59,0,2.26-.09,1,.39,1.29,1.27,1.28,4.94-.08,3.92.68,4.05-3.84,0-.44-.05-.89-.09-1.51h-6.72l-.22-.53c.62-.37,1.21-1,1.86-1.06a41,41,0,0,1,5.06,0,1.61,1.61,0,0,1,1.71,1.85c0,1.6.06,3.19,0,4.79,0,1.38-.66,1.94-2.06,1.95s-3,0-4.51,0-1.94-.6-2-2c0-1,0-1.9,0-3Z" transform="translate(-27.28 -27.87)"/><path d="M154.17,132.51V134h-7c0-1.29-.05-2.47,0-3.64a1.41,1.41,0,0,1,1.52-1.42,28.47,28.47,0,0,0,3-.1c.35,0,.64-.55,1-.85-.33-.28-.64-.78-1-.8-1.45-.09-2.9,0-4.33,0-.47-1.35-.08-1.82,1.19-1.73s2.56,0,3.83.08c1.48.1,1.87.59,1.89,2.09,0,.41,0,.82,0,1.23a1.38,1.38,0,0,1-1.49,1.56c-1.27.07-2.53.16-3.77.24-.42,1.7-.33,1.85,1.24,1.88C151.47,132.53,152.74,132.51,154.17,132.51Z" transform="translate(-27.28 -27.87)"/><path d="M136.5,112.19l1.29.83-3.38,6.15c-1.15-.65-2.23-1.21-3.24-1.86a1.44,1.44,0,0,1-.48-2.13,20.07,20.07,0,0,0,1.32-2.54c.13-.33-.13-.81-.22-1.23-.42.12-1,.11-1.21.38a19.92,19.92,0,0,0-1.67,3c-.47,1-1,1-1.93.19.93-1.64,1.82-3.37,2.9-5,.24-.35,1.13-.44,1.69-.37a4.51,4.51,0,0,1,1.58.78,1.52,1.52,0,0,1,.62,2.39,16.12,16.12,0,0,0-1,1.8c-.31.66-1,1.36.09,2s1.32-.29,1.69-1Z" transform="translate(-27.28 -27.87)"/><path d="M184.81,117.14l.78,1.33-7.44,4.05-.76-1.3c.74-.42,1.38-.85,2.08-1.16.91-.4,1-.93.48-1.71s-.8-1.54-1.25-2.27a1.38,1.38,0,0,1,.5-2.1c.92-.59,1.89-1.1,2.94-1.7l.72,1.28a2.76,2.76,0,0,1-.37.34c-2.59,1.49-2.66,2.39-.34,4.68Z" transform="translate(-27.28 -27.87)"/><path d="M173,113.26l7.15-4.45c.74,1,.69,1.68-.43,2.34-1.95,1.14-3.95,2.19-6,3.31Z" transform="translate(-27.28 -27.87)"/><path d="M153.1,155.64H158v-1.9h-5.22l-.24-.53c.55-.38,1.06-1,1.65-1.09a23.7,23.7,0,0,1,4.09,0,1.44,1.44,0,0,1,1.46,1.63q0,2.61,0,5.23c0,1.1-.59,1.56-1.62,1.57s-2,0-3,0c-2.19,0-3-1.07-2.42-3.24Zm4.92,1.68a27.89,27.89,0,0,0-3,0c-.28,0-.5.57-.75.87.28.22.54.61.83.63,1,.08,2,0,2.94,0Z" transform="translate(-27.28 -27.87)"/><path d="M217.78,180.22a8.83,8.83,0,1,1-.07,17.67,8.83,8.83,0,1,1,.07-17.67Zm6.11,8.83a6,6,0,0,0-6.18-6.11,6.13,6.13,0,1,0,6.18,6.11Z" transform="translate(-27.28 -27.87)"/><path d="M280,189a8.83,8.83,0,1,1,8.69,8.88A8.72,8.72,0,0,1,280,189Zm2.73-.08A6.11,6.11,0,1,0,295,189a6.11,6.11,0,0,0-12.21-.1Z" transform="translate(-27.28 -27.87)"/><path d="M244.25,140.21l2.35-.36V153a1.54,1.54,0,0,1-1.47-1.66C244.9,147.71,244.56,144.08,244.25,140.21Z" transform="translate(-27.28 -27.87)"/><path d="M240.63,140.3h1.94v11.5c-.58-.65-1.32-1.09-1.37-1.6-.31-3.08-.46-6.18-.66-9.27A3.51,3.51,0,0,1,240.63,140.3Z" transform="translate(-27.28 -27.87)"/><path d="M165.78,90.62a7.46,7.46,0,0,1,1.28.66c.23.17.29.55.43.84,1,1.9,2,2.18,4.1,1l-1.2-2.53.19-.26c.33.17.8.25,1,.52,1.05,1.74,2,3.52,3,5.28l-.22.28c-.37-.15-.9-.19-1.07-.46-.56-.91-1.35-.84-2.15-.63-2.75.71-3.33.78-4.78-2.4l-.84-1.85Z" transform="translate(-27.28 -27.87)"/><path d="M146.47,89.7l-3.58.36A6.91,6.91,0,0,1,148,88.44c.1.21.19.3.17.36-.71,2.14-1.36,4.31-2.19,6.41a2.72,2.72,0,0,1-2.62,1.68l-1.78,0c-2.1,0-2.25-.22-1.21-2.11a16.66,16.66,0,0,1,1.54-2.42,2.41,2.41,0,0,1,1.25-.64,17,17,0,0,0,2-.35,8.54,8.54,0,0,0,1.65-1.14Zm-1.34,3.38c-2.67-.06-3,.11-3.37,1.63C143.77,95.37,145,94.78,145.12,93.07Z" transform="translate(-27.28 -27.87)"/><path d="M141.26,89.15c0,1.87-3.51,7.62-4.91,8.06Z" transform="translate(-27.28 -27.87)"/><path d="M118.33,134.41c-1.27.27-1.12-.79-1.42-1.3-.46-.77-.81-1.57.38-2.12s1.91-.57,2.41.74c.34.89.88,1.5,2.18.82a18.63,18.63,0,0,1-.84-2,3.13,3.13,0,0,1,.11-1.14c.31.15.76.22.92.48.64,1,1.19,2,1.86,3.21a23.28,23.28,0,0,1-3.3.76c-.45,0-1-.43-1.4-.8s-.42-.8-.7-1.15c-.14-.18-.45-.22-.68-.32-.1.27-.35.58-.28.8A21.58,21.58,0,0,0,118.33,134.41Z" transform="translate(-27.28 -27.87)"/><path d="M125,135.34c-2,.49-4,1-6,1.46-.17,0-.54-.14-.55-.25a.79.79,0,0,1,.24-.65,3.79,3.79,0,0,1,1.14-.4c1.37-.29,2.75-.59,4.13-.8a3.5,3.5,0,0,1,1.19.25Z" transform="translate(-27.28 -27.87)"/><path d="M190.53,136.31c-2.26-1.63-2.51-2.44-1.49-4.92a3.54,3.54,0,0,1,.22-.5c.45-.75.91-1.49,1.37-2.23.74.59,1.49,1.16,2.2,1.78a.83.83,0,0,1,.26.7c-.71,1.66-1.48,3.3-2.24,4.94C190.79,136.2,190.63,136.24,190.53,136.31Zm-.26-1.88c1.61-2.06,1.71-3.32.35-3.83C189.33,132.57,189.25,133.4,190.26,134.44Z" transform="translate(-27.28 -27.87)"/><path d="M192.86,137.68c-.81-2.18,1-3.7,1.56-5.53C195.13,134.29,193.75,135.92,192.86,137.68Z" transform="translate(-27.28 -27.87)"/><path d="M178.42,154.2l-1.11-.69h3.43c-.37,3.06-2.66,4.06-6.42,3.58C175.25,155.42,178.17,156.88,178.42,154.2Z" transform="translate(-27.28 -27.87)"/><path d="M182,156c.82-.84.21-2.6,2-2.37,1.17.15.63,1.13.44,1.75C184,156.67,183.12,156.29,182,156Z" transform="translate(-27.28 -27.87)"/><path d="M184.38,152.43h-5.06v-.18h5.07Z" transform="translate(-27.28 -27.87)"/><path d="M140.08,158c-2,0-3.58,0-5.19,0-.53,0-1.09.29-1.57.19s-.77-.57-1.15-.87l.16-.53c2,0,4.1-.15,6.15-.06C139,156.77,139.41,157.47,140.08,158Z" transform="translate(-27.28 -27.87)"/><path d="M137.14,154.66c-1.71.2-3.1.9-4.76-.4l2.73-.72-2.12-3.1.33-.26Z" transform="translate(-27.28 -27.87)"/><path d="M129.2,151.66l2.31,3.21-.35.27a8.42,8.42,0,0,1-2.29-3.22Z" transform="translate(-27.28 -27.87)"/><path d="M253,103.07l2.58,2.62-2.54,2.54-2.47-2.54Zm1.6,2.81-1.4-1.7-1.78,1.47,1.58,1.6Z" transform="translate(-27.28 -27.87)"/><path d="M251.28,110.88l1.77-1.81,2,1.66L253,112.5Zm1.81,1.06,1-1.2-1.07-1-1,1.11Z" transform="translate(-27.28 -27.87)"/><path d="M244.28,300.57l1.71-4.82C247.3,298.55,247.07,299.22,244.28,300.57Z" transform="translate(-27.28 -27.87)"/><path d="M269.81,295.22c1.34,2.81,1.3,2.93-1.56,4.94Z" transform="translate(-27.28 -27.87)"/><path d="M230.31,294.73c1.22,2.58.92,3.26-1.75,3.95Z" transform="translate(-27.28 -27.87)"/><path d="M277.61,428a3,3,0,0,1-3,3.18c-2.66,0-4.71-1.55-4.7-3.57a4.07,4.07,0,0,1,3.86-3.71A3.88,3.88,0,0,1,277.61,428Zm-3.75.85,1.51-1.23c-.54-.31-1.08-.85-1.63-.87s-.93.59-1.4.92Z" transform="translate(-27.28 -27.87)"/><path d="M284.65,426.53l6,1.44a3.77,3.77,0,0,1-5.44,1.84C284.06,429.09,283.87,428.18,284.65,426.53Z" transform="translate(-27.28 -27.87)"/><path d="M211.51,291.93l.81,1.94-2.51.43Z" transform="translate(-27.28 -27.87)"/></g></svg>