<?xml version="1.0" encoding="utf-8"?>
<!-- Generator: Adobe Illustrator 21.1.0, SVG Export Plug-In . SVG Version: 6.00 Build 0)  -->
<svg version="1.1" id="Layer_1" xmlns="http://www.w3.org/2000/svg" xmlns:xlink="http://www.w3.org/1999/xlink" x="0px" y="0px"
	 viewBox="0 0 452.8 448.7" style="enable-background:new 0 0 452.8 448.7;" xml:space="preserve">
<style type="text/css">
	.st0{fill:#FFFFFF;}
</style>
<title>logo</title>
<g id="_2Q0kFe.tif">
	<path class="st0" d="M405,197.9c0.5,3.6,1.1,7,1.6,10.4c1,6.4,2.2,12.8,2.8,19.2c0.6,6-1.5,10.2-7.1,12.7c-0.4,0.2-0.6,0.6-0.6,1
		c0.9,5.1,1.9,10.2,4.2,14.9c1,2.2,2.8,3.9,4.9,5c4.7,2.2,9.7,3.9,14.9,4.9c4.4,0.9,8.7,1.8,13.1,2.7c3,0.8,4.9,3.8,4.1,6.8
		c-1.5,4.9-3.2,9.7-4.9,14.5c-4.6,13.5-10.3,26.6-16.9,39.2c-8.1,15-17.6,28.9-29.7,41c-16,16-35.2,26.8-56.7,33.4
		c-12.9,3.9-26,7-39.4,9.1c-8.2,1.3-16.4,2.3-24.6,3.6c-5.8,0.9-11.4,2.9-16.5,5.8c-4.7,2.6-8.3,6.6-11.7,10.6
		c-3.9,4.5-7.7,9.1-11.5,13.6c-2.2,2.7-6.1,3.2-8.9,1.1c-0.4-0.3-0.8-0.7-1.1-1.1c-5-5.9-10-11.8-15.1-17.6
		c-5.9-6.7-13.5-10.3-22.1-11.8c-7.9-1.4-16-2.3-23.9-3.6c-20.7-3.4-41.2-7.8-60.5-16.4c-21-9.4-38.2-23.6-52.1-41.9
		c-12.1-16-21.3-33.5-28.5-52.2c-3.2-8.4-6.1-16.9-9.2-25.3c-0.9-2.4-1-4.8,0.8-6.8c0.7-0.9,1.7-1.5,2.8-1.8
		c5.9-1.4,11.9-2.4,17.7-3.9c3.4-1,6.7-2.1,9.9-3.5c2.8-1.2,5-3.4,6-6.3c1.8-4.6,3.1-9.4,3.8-14.3c-0.4-0.2-0.8-0.4-1.2-0.5
		c-4.8-1.8-7.4-5.4-7.5-10.4c0-3.2,0.3-6.5,0.9-9.6c1.1-7.3,2.3-14.6,3.4-21.9c0-0.3,0-0.7,0-1L35,195.8l-19.3-3L4.6,191
		c-2.4-0.2-4.3-2.1-4.5-4.4c-0.4-2.2,0.5-4.3,2.3-5.6c5.8-4.9,11.6-9.9,17.5-14.9c-2.2-3.6-4.3-7.2-6.5-10.8c-1.6-2.7-3.3-5.2-4.8-8
		c-1.2-2-1.1-4.4,0.3-6.3c1.3-1.8,3.5-2.4,5.9-1.9c9.8,2.2,19.7,4.3,29.5,6.4l10.3,2.2c-1-2.3-1.8-4.4-2.8-6.4
		c-4.9-9.8-11-19-18.1-27.3c-2.7-3.2-5.3-6.4-8.1-9.5c-2.9-3.4-3-5.8-1.1-9.6C30.8,82.9,37,70.8,43.2,58.7
		C52.1,41.6,61,24.4,69.9,7.1c1.2-2.4,2.9-4.1,5.7-4.1c1.6,0.1,3.2,0.4,4.7,0.8c23.4,5.2,46.8,10.5,70.2,15.7
		c8.1,1.8,16.3,3.7,24.4,5.2c6.7,1.4,13.6,2,20.5,1.6c5.5-0.2,10.5-3,13.6-7.5c3.8-5.3,7.9-10.4,11.5-15.8c1.9-3,5.9-3.9,9-2
		c0.8,0.5,1.5,1.2,2,1.9c3.8,5.6,7.9,10.9,11.9,16.4c2.5,3.4,5.5,6,9.7,6.6c3.8,0.5,7.6,0.7,11.5,0.5c11.3-0.6,22.2-3.5,33.2-5.9
		c20.3-4.5,40.6-9,60.9-13.6l16.5-3.7c2.2-0.4,4.4,0.4,5.8,2.2c1.4,2.3,2.6,4.7,3.9,7.1c12.3,23.9,24.7,47.8,37,71.7
		c2,3.9,4,7.8,6.1,11.8c1.5,2.9,1.1,5.5-1.1,8.2c-3.8,4.5-7.6,8.9-11.2,13.4c-7.3,8.8-13.2,18.6-17.6,29.2c-0.1,0.3-0.3,0.7-0.4,1
		c0,0.2,0,0.3,0,0.5c2.1-0.4,4.2-0.9,6.3-1.4l34.5-7.5c2.1-0.5,4.3,0.4,5.5,2.1c1.3,1.9,1.4,4.4,0.1,6.3
		c-3.4,5.9-6.9,11.7-10.5,17.5c-0.5,0.9-0.5,1.4,0.3,2c5.6,4.7,11.2,9.5,16.8,14.3c1.6,1.2,2.3,3.2,2,5.2c-0.2,2.3-2,4.2-4.3,4.5
		c-4.8,0.8-9.6,1.5-14.4,2.3l-18.2,2.9L405,197.9z M14.8,274.4c0.1,0.5,0.2,0.8,0.3,1.1c2.7,7.6,5.4,15.3,8.3,22.9
		c7.2,18.7,16.1,36.4,28.2,52.5c14.7,19.5,33.2,34,56,43c18.9,7.5,38.8,11.4,58.8,14.4c6.6,1,13.2,1.8,19.7,3
		c9.2,1.7,17.2,5.7,23.6,12.6c4.1,4.5,8.1,9.2,12.1,13.8c1.4,1.6,2.6,3.2,4.1,5V278c-0.1-0.1-0.3-0.1-0.4-0.1
		c-7.4-0.7-14.7-1.3-22-2.3c-6.6-0.8-13.2-2.5-19.4-5c-4-1.6-7.5-3.9-9.4-8.1c-0.1-0.3-0.6-0.5-1-0.5c-9.4-1-18.9-1.9-28.3-3
		c-11-1.4-22-3-32.9-4.7c-18.5-3-36.9-6.7-55.1-11.5c-0.4-0.1-0.8-0.1-1.1-0.2c-1,3.9-1.9,7.5-2.8,11.2c-1.9,7.4-6.4,12.4-13.8,14.6
		c-4.5,1.3-9,2.6-13.6,3.7C22.4,273,18.6,273.6,14.8,274.4z M388.7,181.6l-0.1-0.8c-0.4-3.4-1-6.8-1.1-10.2
		c-0.2-6.8,0.7-13.7,2.8-20.2c3.6-11.7,9.7-22.1,17-31.8c4.8-6.3,10-12.3,15-18.5c0.5-0.4,0.6-1.1,0.2-1.7
		c-7.6-14.7-15.2-29.5-22.8-44.2c-7.3-14.2-14.7-28.3-22-42.5c-1.5-2.8-1.4-2.9-4.6-2.2c-19.5,4.3-39,8.8-58.5,13
		c-13.7,3-27.4,6-41.2,8.7c-6.4,1.4-13,1.6-19.5,0.7c-5.8-0.9-10.7-3.2-14.3-7.9c-3.3-4.5-6.7-8.9-10-13.4c-1.2-1.6-2.3-3.2-3.7-5.1
		v64.3c3.1,1.9,5.7,4.6,7.3,7.8c0.9-1.2,1.5-2.2,2.3-3.1s1.6-1.6,2.5-2.4c0.8-1.1,2.2-1.6,3.6-1.2c1.5,0.4,2,1.6,2.4,2.9
		c1,3.9,0.8,8.1-0.7,11.8c-0.2,0.5-0.2,1,0,1.5c0.8,2.4,2,4.7,2.4,7.1c0.8,4.6,1.6,9.3,1.4,13.9c-0.2,4.4-1.5,8.8-2.5,13.1
		c-0.2,0.9-0.7,1.7-1.4,2.3c-0.5,0.4-0.7,1.2-0.3,1.8c0.7,2.1,2.1,4,1.5,6.3c2.4,0.6,2.5,0.6,3.7-1.4c0.7-1.1,1.8-2,3-1.7
		c3,0.7,6,1.4,8.6,3.2c2-2.2,2.5-2.2,5.3-0.8c0.3,0.1,0.7,0.1,1,0c1.8-0.5,3.8-0.2,5.3,1c0.8,0.5,1.6,1.1,2.4,1.6
		c0.4-0.7,0.8-1.3,1.2-2c0.5-1.2,1.7-1.9,3-1.8c1.3,0.1,2.5,0.9,2.9,2.2c2.1,5.1,3.6,10.5,4.3,16.1c1.3,10.2,0.1,20.5-3.5,30.1
		c-0.9,2.6-1.9,3.1-4.6,2.9c2.5,6.6,1.4,12.9-2.3,18.9C313.3,197.5,351.5,192.7,388.7,181.6z M233.3,207c-0.3,2.2-0.7,4.2-0.9,6.1
		c-0.2,2.7-1.2,3.8-3.9,3.9c-3,0-6,0.1-9,0c-2.6-0.2-5.1-0.5-7.3-2.3c-0.7-0.5-1.6-0.8-2.5-0.8c-6.6-0.1-13.2-0.1-19.7,0
		c-1.8,0-3.6-0.8-4.9-2.1c-0.2-0.2-0.4-0.4-0.6-0.6c-1.8-1.6-3.6-3.1-5.5-4.6c-0.4-0.4-0.9-0.6-1.4-0.8c-10-0.9-20.1-1.5-30.1-2.6
		c-11.3-1.3-22.6-2.9-33.9-4.6c-12.9-2-25.7-4.6-38.3-7.9c-4.7-1.2-9.3-2.7-14-3.7c-6.5-1.3-8.2,0.9-9,5.9
		c-1.4,8.8-2.8,17.6-4.2,26.5c-0.5,3.4-0.9,6.8-1.1,10.2c-0.2,2.6,1.2,4.3,3.5,5.3c0.8,0.4,1.7,0.7,2.6,0.9c12,2.9,24,5.9,36,8.4
		c11,2.3,22,4.1,33.1,5.9c9,1.4,18,2.7,27.1,3.7c9.7,1.1,19.4,2.1,29.1,2.8c11.3,0.8,22.6,1.5,33.9,1.8c20,0.6,40.1-0.1,60.1-1.8
		c11.3-1,22.5-2,33.8-3.4c11.8-1.5,23.5-3.2,35.2-5.2c16.4-2.7,32.6-6,48.7-10.2c3.3-0.9,6.7-1.8,9.9-2.9c2.8-0.9,4-3.1,3.9-6
		c-0.1-2-0.3-4.1-0.6-6.1c-1.2-8-2.5-16-3.7-24.1c-0.5-2.8-0.9-5.7-1.6-8.4c-0.4-2.2-2.4-3.8-4.7-3.6c-1.7,0-3.5,0.1-5.1,0.5
		c-9.8,2.4-19.5,5.2-29.3,7.2c-11.7,2.4-23.5,4.4-35.3,6.1c-9.1,1.4-18.2,2.3-27.3,3.2s-18.3,1.6-27.4,2.1s-18.2,0.7-27.4,1
		C238.8,207.1,236.1,207,233.3,207z M425.9,167.5l13.5-22.8c-0.3,0-0.6,0-0.9,0c-14,3-28,6.1-41.9,9.1c-0.9,0.1-1.5,0.8-1.6,1.6
		c-1.3,5.6-1.8,11.3-1.4,17c0.3,3.1,0.7,6.1,1.1,9.2c6.4,1,8.6,5.4,9.4,11l43.3-6.7L425.9,167.5z M5.3,185.7l41.8,6.5
		c0.3-1.1,0.4-2,0.7-2.9c0.9-3.3,2.8-6,6.1-6.8c2.8-0.6,3.6-1.9,4-4.6c1.1-7.6,0.8-15.4-1-22.9c-0.1-0.7-0.7-1.3-1.4-1.4
		c-12.5-2.7-24.9-5.4-37.4-8.1c-1.5-0.3-3-0.6-4.8-1l13.6,22.9L5.3,185.7z M362.8,279.8c-0.5,0.2-0.7,0.3-0.9,0.4
		c-13,7.1-25.6,15-37.6,23.7c-4.8,3.6-9.5,7.4-13.2,12.2c-7.5,9.9-13.6,20.6-19.4,31.6c-0.4,1-1,1.9-1.7,2.8
		c-5.6,6-11.2,12-16.8,18.1c-1.9,2-3.8,4.1-5.6,6.2c3.4-1.5,6.5-3.2,9.7-4.9c0.6-0.3,1.2-0.8,1.7-1.3c6-6.3,12-12.7,18-19
		c0.4-0.4,0.9-0.7,1.4-0.9c2.6-0.6,5.2-1.1,7.7-1.7c9.9-2.3,19.6-5.1,28.6-9.7c2.9-1.4,5.5-3.2,7.9-5.4l-12.5-7.1
		c6.2,0,11.9-0.1,17.7,0c2.4,0,4.2-0.8,5.2-2.8c1.6-3,2.9-6,4-9.2c2.5-7.9,3.6-16,4.7-24.1C362.2,285.8,362.5,282.9,362.8,279.8
		L362.8,279.8z M129.1,74.3h-0.5c-7.4,13.3-14.8,26.6-22.3,40.1h44.8L129.1,74.3z M126.6,74.2l-0.3-0.5l-37.8,2.7l16.5,35.8h0.5
		L126.6,74.2z M152.1,112.2h0.5l16.8-35.8l-38-2.7l-0.3,0.4L152.1,112.2z M107.3,116.7l-0.2,0.4l21.9,28l21.5-28l-0.3-0.4
		L107.3,116.7z M174.9,139.1h0.4c0.7,1.3,1.5,2.5,2.1,3.8c0.2,0.4,0.2,0.9,0.2,1.3c-0.4,3.2-1,6.4-1.3,9.6
		c-0.6,6.7,0.2,13.4,2.3,19.7c0.9,2.6,0.9,2.6,3.5,2.3c0.2,0,0.5,0,0.7,0c4.2-0.4,8.2-1.5,12-3.4c6.1-3.2,8.6-8.4,7-14.4
		c-1.3-4.8-5-6.7-9.4-8c-1.7-0.5-3.4-1.1-5-2c-4.9-2.8-8.3-7.2-11.3-11.9c-0.6-0.9-1.1-1.8-1.8-2.9c-6.1,15.2-6.1,30.2-0.5,45.3
		l2.7-1.4C170.6,164.5,172.6,151.8,174.9,139.1L174.9,139.1z M277.7,133.2c-0.5,0.9-0.9,1.7-1.5,2.4c-1.8,2.5-3.6,5.1-5.6,7.4
		c-3.3,3.7-7.7,6.4-12.6,7.5c-9.6,2.5-10.9,14.2-4.2,19.5c1.6,1.3,3.4,2.3,5.3,3.2c3.6,1.7,7.6,2.2,11.5,2.7c1.4,0.2,2.2,0,2.5-1.4
		c0.1-0.2,0.1-0.4,0.2-0.6c2.9-8.5,3.5-17.7,1.7-26.6c-0.8-3,0-6.2,2.2-8.4c0.6,3.9,1.3,7.6,1.7,11.3c0.7,5.4,0.7,10.8,0,16.2
		c-0.5,3.7-1.6,7.3-3.3,10.6l2.6,1.3C283.5,166.4,284.4,147.7,277.7,133.2z M266.7,182.6l-0.3,0.2c-0.3-0.5-0.6-1.1-1-1.6
		c-2.2-3.4-5.2-5.8-9.5-5.9c-6.8-0.1-13.6-0.1-20.4-0.1c-2,0-4,0.2-6.1,0.4c0.5,0.9,1,1.5,1.3,2.3c1.5,3.1,2.1,6.6,1.9,10
		c-0.1,0.7,0.3,1.4,1,1.7c2.1,1.1,4,2.3,6.1,3.3c4.2,2,8.5,4,12.9,5.7c3.2,1.2,6.1,0.4,8.6-2c0.5-0.6,1-1.4,1.3-2.1
		c-0.2-0.1-0.4-0.1-0.6-0.1c-0.4,0-0.8,0-1.2,0.1c-8.4,0.9-16-1.3-23.1-5.6c-2.4-1.4-2.4-1.5-1.6-4.2l0.5-1.8c2.9,0,5.7-0.1,8.5,0
		c8.6,0.5,16.5,2.6,22.8,9.3c1.2-3.4,0.9-6.8,0.8-10.4c0.9,0.6,1.8,1.2,2.8,1.7c1.5,0.6,2.5,2.2,2.2,3.8c-0.2,2.6-0.6,5.2-1,7.8
		c-0.1,0.7-0.4,1.3,0.6,1.7c0.1-0.2,0.3-0.5,0.4-0.7c0.2-0.6,0.5-1.2,0.7-1.8c1.5-4.3,1.6-8.6-0.7-12.7c-0.9-1.7-2.4-3.1-4.3-3.6
		c-1.8-0.4-3.6-0.6-5.5-0.8L266.7,182.6z M187.9,197.2c-0.5,1.4-0.8,2.6-1.3,3.7s0.1,1.9,1.1,2.7c2.8,2.3,6.4,3.4,10,3.2
		c4.4-0.3,8.8-0.1,13.3-0.1v2.9h-1.5c-4.7,0-9.4-0.1-14.1,0c-2,0.1-4-0.4-5.6-1.6c-1-0.7-2-1.3-3.2-2.1c0.2,0.9,0.3,1.6,0.4,2.2
		c0.6,2,1.2,2.5,3.4,2.5c6.9,0,13.9,0,20.8,0c0.7,0.1,1.4,0.3,1.9,0.7c0.9,0.5,1.8,1.2,2.9,2c-0.2-1.8-0.4-3.1-0.5-4.5
		c0-0.7-0.5-1.3-1.1-1.5c-4.6-1.9-8.8-4.8-12-8.7c-0.9-1-1.5-2.3-1.4-3.7c0.1-1.6,0-3.2-0.2-4.8c-0.1-0.5-0.4-0.8-0.9-1
		c-3.3-0.9-6.7-1.6-10-2.5c-1.5-0.4-3.1-0.3-4.5,0.4c-4.4,1.9-6.6,5.3-6.7,10.1s2.9,7.8,6.5,10.9
		C185.1,204.1,185.4,200.5,187.9,197.2L187.9,197.2z M355.8,371.7c-0.3-0.1-0.6-0.3-0.9-0.4c-3.8-1.1-7.5-2.2-11.3-3.2
		c-12.1-3-24.3-5-36.8-4.7c-3.2,0.2-6.4,0.5-9.5,1c-1.3,0-2.3,1-2.4,2.3c-0.1,1.4,0.9,2.1,2.1,2.6c0.4,0.2,0.8,0.3,1.2,0.4l15,3
		c1.9,0.4,3.9,0.8,5.8,1.2l0,0.5c-16.7,2-33.6,0.9-50.4,0.9c1.3,0.3,2.6,0.5,3.9,0.6c7.8,0.8,15.5,1.8,23.3,2.2
		c6.8,0.4,13.6,0.3,20.4,0.1c2.4-0.2,4.7-0.6,6.9-1.4c1.4-0.2,2.4-1.4,2.4-2.8c0-1.4-1-2.6-2.3-2.9c-2.1-0.7-4.2-1.4-6.4-1.9
		c-3.4-0.8-6.8-1.4-10.2-2C323.2,366.5,339.5,369,355.8,371.7z M225.9,109.6c1.4,0.6,2.7,1,3.9,1.6c0.5,0.3,0.7,0.8,0.8,1.3
		c0,2.1-0.2,4.3-0.4,6.4c-0.2,3.1-0.4,6.2-0.6,9.3c1.7-0.3,1.8-0.3,1.8-1.9c0-1.8,0-3.6,0.1-5.5c0.1-3,0.2-6,0.3-9.1
		c0.7,0.1,1.4,0.2,2.1,0.4c0.4,0.2,0.6,0.6,0.7,1.1c-0.2,3.3-0.5,6.6-0.7,10c-0.1,0.5-0.2,1-0.3,1.4c-0.2,0.7-0.5,1.4-0.8,2.2
		c2.2-0.4,2.9-1.5,2.8-3.3s0-3.6,0.1-5.5s0.2-3.9,0.3-6l2.5,0.5c-0.1,2.2-0.2,4.2-0.5,6.2s-0.5,3.9-0.8,5.8c2.5-1.5,5.1-3.1,5.4-6.5
		c0-0.5,0.2-1,0.3-1.5c0.5-2.8,1-5.7,1.5-8.4c-1.6,0.7-3.3,1.2-5,1.7c-4.4,0.8-8.5-0.5-12.5-1.9c-0.6-0.2-1.3-0.2-1.9,0
		c-2.9,0.7-5.7,1.7-8.6,2.1c-3.2,0.5-6.4-0.3-9-2.2c0.4,2.6,0.7,4.9,1.2,7.2c1.5,7.1,1.8,7.4,8.1,10.9c2.9,1.7,6,2.9,9.2,3.6
		L225.9,109.6z M130.1,52.4l-0.4,0.3c0,0.5,0,1,0,1.5c0.1,4.9,0.1,9.8,0.2,14.6c0.1,3-0.3,2.9,2.8,3c0.5,0,1,0.1,1.5,0.2l30.4,2.2
		c0.7,0.1,1.5,0,2.2,0l0.1-0.4L130.1,52.4z M227.1,184c-0.6-2-1.4-4.3-2.1-6.6c-0.4-1.1-1-1.7-2.3-1.3c-0.9,0.2-1.8,0.3-2.7,0.3
		c-4.5,0.7-9,1.6-13,3.8c-2.4,1.1-4,3.4-4.4,5.9c-0.3,2.8-0.1,5.6-0.2,8.5c-0.1,2.1,1.4,3.2,2.9,4.6v-6.1c1.3,1,2,2,1.8,3.6
		c-0.1,0.9-0.1,1.7,0,2.6c0,1.8,0.6,2.5,2.6,3v-6c1.2,0.9,2.1,1.7,1.9,3.2c-0.1,1.1-0.1,2.3,0,3.4c0,0.4,0.2,0.8,0.5,1
		c1,0.5,2,0.9,3.2,1.5c0-3,0-5.7,0-8.4c0-2.5,0-2.5,2.4-3.1c2.7-0.6,5.5-2.7,6.4-4.5c-4.2,2.2-8.4,4.5-13.4,4.7
		c-0.4-3.5-0.4-3.5,2.3-5c0.6-0.4,1.2-0.7,1.8-0.9C218.8,186.7,222.8,185.4,227.1,184L227.1,184z M250.9,131.8
		c-0.1,0.1-0.2,0.2-0.3,0.4c-5.5,9.4-13.6,15.6-23.7,19.2c-0.7,0.2-1.4,0.2-2.1,0c-6.2-2.1-11.9-5.5-16.6-10
		c-2.9-2.8-5.5-6.1-7.4-9.6l-5.6,1.9c-0.2,0.1-0.3,0.1-0.6,0.3c6.3,13.3,17.3,20.7,31,25.1c0-1.6,0.1-3,0-4.3s0.2-1.7,1.5-2
		c9.2-2.3,17.2-8.1,22.3-16.1c0.3-0.3,0.8-0.5,1.3-0.5c1.6,0.3,3.3,0.7,5,1.1l1.6-3.4L250.9,131.8z M90.8,73.7l0.2,0.5
		c0.3,0,0.6,0,0.9,0c11.4-0.8,22.9-1.6,34.3-2.3c1.4-0.1,1.7-0.6,1.7-1.8c-0.1-5.3-0.1-10.7-0.1-16c0-0.5-0.1-1-0.2-1.6L90.8,73.7z
		 M224.5,173c0-2.7,0-5.7,0-8.7c0-1-0.4-1.3-1.2-1.6c-4.8-1.6-9.5-3.3-14.3-5c-1.7-0.6-3.5-1.2-5.4-1.8c0.1,0.4,0.1,0.6,0.1,0.7
		c2,6.8,0,12.5-5.8,16.5c-0.9,0.7-1.4,1.2-0.6,2.4c6.7-3.3,9.1-9,9.2-16.1c2.8,0.2,3.1,0.5,3.1,3.1c0,5.3-1.7,10.4-4.8,14.7
		c-0.9,1.3-2,2.5-3,3.8c1,0.8,1.8,0.6,2.8-0.1c2.1-1.7,4.5-3.1,7-4.2C215.6,175.1,219.9,174.2,224.5,173L224.5,173z M88.4,121.7
		c0.7-0.2,1.2-0.4,1.6-0.6l12.2-5.5c1.8-0.8,1.8-0.8,1-2.6c-4.6-10-9.3-20-13.9-30c-0.2-0.3-0.4-0.6-0.6-0.9l-0.3,0.1V121.7z
		 M169.4,81.8l-0.3-0.1c-0.2,0.4-0.5,0.8-0.7,1.3c-2,4.2-4,8.5-6,12.7c-2.7,5.8-5.3,11.6-8,17.4c-0.8,1.8-0.8,1.8,0.9,2.6
		c4.1,1.9,8.3,3.8,12.4,5.6c0.5,0.2,1,0.3,1.5,0.4L169.4,81.8z M253.8,172.9c-5.9-4.4-7.5-10.1-5.5-16.8c-0.1-0.1-0.2-0.1-0.2-0.1
		c-6.7,2.3-13.3,4.6-20,6.9c-0.3,0.1-0.5,0.4-0.6,0.8c0,3.1,0,6.2,0,9.3l17.3-0.6c-0.2-0.5-0.5-1-0.7-1.4c-1.4-3.1-1.9-6.6-1.6-10
		c0-0.4,0.3-0.8,0.6-1c0.7-0.3,1.4-0.5,2.2-0.6c0,0.8,0,1.4,0,2.1c-0.2,2.9,0.5,5.8,1.9,8.3C248.7,172,250.6,173.5,253.8,172.9
		L253.8,172.9z M134.6,141.4l0.3,0.4l32.2-18.5c-0.8-0.5-1.2-0.8-1.6-0.9c-3.5-1.6-7-3.2-10.6-4.8c-1.9-0.8-1.9-0.8-3.1,0.8
		l-16.7,22C134.9,140.7,134.7,141.1,134.6,141.4z M122.9,141.7l0.3-0.3c-0.1-0.3-0.3-0.5-0.4-0.8c-5.8-7.7-11.7-15.3-17.5-23
		c-0.3-0.6-1.1-0.8-1.7-0.5c0,0-0.1,0-0.1,0c-3.8,1.8-7.7,3.6-11.5,5.3c-0.4,0.2-0.7,0.5-1,0.7L122.9,141.7z M195.2,174.9
		c-1.9,0.6-3.6,1.4-5.4,1.8s-3.8,0.7-5.6,1.1c-2.5,0.5-5,1.1-7.6,1.7c-1,0.2-1.3,0.9-1.1,1.9c0.3,1.9,0.5,3.8,0.8,5.7
		c0.3,2.2,0.6,4.4,0.9,6.6c0.2-0.1,0.3-0.1,0.3-0.2c0.9-3.1,2.9-5.7,5.7-7.1c2.7-1.7,6-2,9-0.9c2.1,0.6,4.2,1.2,6.4,1.6
		C198.8,182.4,195.5,179.1,195.2,174.9L195.2,174.9z M214.4,157.1c-0.1-0.3-0.2-0.4-0.2-0.4c-0.5-0.3-1-0.6-1.6-0.9
		c-8.7-4.9-15.6-11.5-19.8-20.7c-1.4-3.1-2.5-3-4.6-0.9c-0.1,0.1-0.1,0.2-0.1,0.2l-0.3,0.2l6.4,9.6c-0.2-0.1-0.4-0.2-0.6-0.4
		c-3-2.4-5.5-5.3-7.6-8.6c-0.6-1-1.4-1.7-2.6-1.1c-1.4,0.8-2.7,1.7-4.2,2.7c0.9,1.2,1.7,2.2,2.5,3.2c3.2,3.8,6.9,6.8,12,7.9
		c2.5,0.6,4.8,1.8,6.7,3.5c1,0.8,2,1.4,3.2,1.9c1.2,0.6,2.5,0.9,3.7,1.3L214.4,157.1z M236,157.5c0.2,0,0.5,0,0.7,0
		c4.3-1.5,8.7-3.1,13-4.6c0.4-0.1,0.8-0.4,1.1-0.7c2.2-2.3,5.1-3.8,8.2-4.4c6.2-1.5,10-5.9,13.7-10.8c-1.3-0.9-2.4-1.7-3.5-2.4
		c-1.5-0.9-2.1-0.6-3.2,0.8c-1.7,2.2-3.5,4.5-5.3,6.6c-1.1,1.1-2.2,2.1-3.4,3l-0.3-0.3c3-2.9,5.4-6.4,7.1-10.2
		c-0.3-0.2-0.5-0.4-0.7-0.6s-0.5-0.3-0.8-0.4C256.2,144.1,247.1,151.8,236,157.5L236,157.5z M210.7,74c-1.1,3.3-1,6.8,0.1,10.1
		c0.2,0.5,0.6,0.8,1.1,0.9c9.2,0.1,18.3,0.1,27.5,0c0.4,0,0.7-0.2,0.9-0.5c1.3-3.3,1.4-7,0.3-10.4c-1,0.9-1.9,1.8-2.8,2.6
		c-0.7,0.5-1.2,1.4-1.2,2.3c0.1,1.6-0.9,3-2.4,3.5c-2.6,0.9-4.6-0.7-4.7-3.6c0-0.6,0-1.4-0.3-1.8c-1.1-1.3-2.4-2.4-3.5-3.6
		c-0.8,0.7-1.6,1.5-2.4,2.1c-1.2,0.9-1.8,2.3-1.7,3.7c0.1,1.5-0.9,2.8-2.3,3.1c-2.5,0.7-4.5-0.9-4.7-3.7c0-0.5-0.1-1-0.4-1.4
		C213.2,76.3,212.1,75.3,210.7,74z M231.6,195.7c-3.7,0-7.3-0.1-10.8,0c-2.4,0.1-2.9,0.7-2.9,3.1c0,4.6-0.6,9.3,0.6,13.9
		c0.1,0.5,0.6,1.2,0.9,1.2c3.3,0.1,6.5,0.1,9.9,0.1v-2.7h-7v-2.3h7.8v-3.2h-7.8v-2.2h8.8V201h-8.5v-2.2h9.2L231.6,195.7z
		 M225.5,89.5c1,0.5,1.8,0.8,2.6,1.3c2.4,1.4,2.6,1.6,1.4,4.1c-0.8,1.7-1.9,3.4-3.1,5.5l8.9-1.7c0.4,0.6,0.5,2.2,2,0.9
		c0-0.3-0.1-0.6-0.2-0.8c-1.8-5.3-5.9-8.1-11-9.7c-0.4-0.1-0.7,0-1.1,0.1c-2.9,0.9-5.6,2.5-7.7,4.7c-1.6,1.6-2.7,3.7-3.1,5.9
		c3.7,1,7.5,1.5,11.3,1.4L225.5,89.5z M211.8,125.8c-0.5,1.3-0.8,2.4-1.4,3.4c-0.4,0.8-0.4,1.8,0.2,2.5c2.4,4.2,6.1,6.8,10.4,8.8
		c1.4,0.7,2.9,1.2,4.5,1.8v-8.6C220.5,132.1,216.1,129.2,211.8,125.8L211.8,125.8z M225.5,149.5c0-1.4-0.1-2.5,0-3.6
		s-0.3-1.6-1.4-1.9c-5.5-1.8-10.5-4.5-14.1-9.2c-0.7-0.9-1.3-2-1.9-3l-4.2,1.4C209.4,141.1,216.5,146.2,225.5,149.5L225.5,149.5z
		 M262,191.1c-7.2-4.8-15-5.6-23-5.1C246.1,190.3,253.5,192.4,262,191.1L262,191.1z M225.4,103.1c-0.5,0-1,0-1.4-0.1
		c-3.1-0.4-6.1-0.7-9.2-1.2c-1-0.2-2.1,0.2-2.7,1.1c-0.3,0.3,0,1.2,0.1,1.8c0.2,0.8,0.6,1.6,0.9,2.4s0.7,1,1.5,1
		c3.2-0.1,6.3-0.8,9.3-2C225.3,105.5,226.1,104.8,225.4,103.1L225.4,103.1z M212.8,99.4c1.2-4.7,4.5-8.5,8.9-10.4
		c1.1-0.5,2.2-0.8,3.3-1.3c0.3-0.1,0.5-0.4,0.5-0.6c-0.1-0.3-0.3-0.5-0.6-0.6c-3.1-0.1-6.3-0.4-8.9,2.2c-2.8,2.6-4.9,5.9-6,9.6
		L212.8,99.4z M231.2,89.7c3.7,2,6.4,5.5,7.4,9.7l2.6-1.1c-0.9-4.9-5.1-9.6-8.8-11.6c-0.8-0.4-1.8-0.2-2.8-0.3v0.3l2.2,1.4
		L231.2,89.7z M214.9,275.4l0.2,0.2c0.3-0.2,0.5-0.4,0.8-0.6c1.1-0.6,2.2-1.3,3.3-1.8c0.7-0.4,1.2-0.1,1.4,0.7s0.8,1.7,1.2,2.6h0.6
		c0.2-0.6,0.9-1.6,0.7-1.9c-1.8-2.3-2.2-5-3-7.7c-0.4-1.2-0.7-2.5-1.1-3.9c-1,0.6-1.8,1.1-1.5,2.3c0.1,0.4,0.1,0.9,0,1.4
		c-0.8,2.6-1.6,5.3-2.3,7.9C215,274.7,215,275,214.9,275.4z M224.9,176c2.3,3,3.6,6.5,3.9,10.2c0.2,1.7,0.7,2,2.8,1.5
		c-0.3-3-0.7-5.9-1.3-8.9c-1.1-4-0.7-3.4-4.4-3L224.9,176z M237.5,107c0.4-1,0.7-2,1.1-2.9s-0.3-1.4-0.9-1.3c-1.3,0.5-2.8,0.2-4-0.6
		c-0.1-0.1-0.5-0.1-0.7,0c-1.4,0.3-2.8,0.6-4.5,0.9c0.2,0.8,0.2,2,0.7,2.2C231.8,106.6,234.6,107.1,237.5,107L237.5,107z
		 M247.3,273.1c-3-2.9-3.1-6.9-4.9-10.4c-0.5,0.6-1.1,1.3-1.1,1.9c0,3.2-0.7,6.4-2,9.4c-0.2,0.4-0.3,0.8-0.4,1.3l0.3,0.2
		c1.4-1.6,2.8-3.1,5-3.4l1.8,3L247.3,273.1z M199,272.8l0.2,0.3c0.4-0.3,0.9-0.6,1.4-0.8c1.1-0.4,2.2-0.7,3.4-0.7
		c0.4,0,0.8,1.2,1.2,1.9c0.1,0.2,0.1,0.5,0.3,0.6c0.3,0.2,0.9,0.5,1,0.4c0.3-0.4,0.8-1.1,0.6-1.3c-2.1-2.9-2.5-6.4-3.5-9.7
		c-0.1-0.3-0.2-0.6-0.5-1.4c-0.6,0.9-1.4,1.4-1.3,1.9c0.1,2.4-0.8,4.5-1.6,6.5C199.9,271.4,199.5,272.1,199,272.8L199,272.8z
		 M233.2,264.6l0.2,0.3c-0.2,0.2-0.3,0.4-0.5,0.6c-1.8,2.8-2,6.3-0.5,9.2c0.6,1.1,1.8,1.6,3,1.2c1.2-0.5,2-1.7,2.1-3.1
		c-0.3,0.3-0.6,0.5-0.9,0.7c-0.6,0.7-1.7,0.9-2.4,0.3c-0.1-0.1-0.2-0.2-0.3-0.3c-0.6-0.6-1-1.3-1.1-2.1c0-1.7,0.2-3.3,0.5-4.9
		c0.1-1,1-1.7,2-1.6c1.2-0.1,2.3-0.7,2.8-1.8h-4.7c-1.1-0.1-2.1,0.7-2.2,1.8c0,0.2,0,0.3,0,0.5L233.2,264.6z M246.9,395.5
		c-2,0.1-3.9,1.1-5.1,2.7c-1.1,1.2-1.1,3,0,4.2c1.7,2.2,4.5,2.5,7.5,0.8c2-1.1,3-2.9,2.6-4.7S249.6,395.5,246.9,395.5L246.9,395.5z
		 M231.9,396.1c1.2,0.9,1.3,0.9,2.4,0.5c1.5-0.6,3.3-0.3,4.6,0.8c-0.5,0.4-1,0.8-1.6,1.1c-1.4,0.5-2.9,0.9-4.3,1.4
		c-1.6,0.5-2,1.1-1.6,2.5c0.5,2.1-0.2,1.9,2.3,1.9c0.3,0,0.5,0,0.8,0l4.6-0.3v-0.4c-0.5-0.2-1.1-0.3-1.6-0.3c-0.9-0.1-1.8,0.1-2.7,0
		c-0.6-0.2-1.2-0.5-1.8-0.8c0.5-0.5,0.8-1.2,1.4-1.4c1.2-0.5,2.6-0.8,3.9-1.3c0.7-0.5,1.4-1.1,2-1.8c-0.6-0.6-1.3-1.2-2-1.7
		C236.2,395.1,233.9,395.1,231.9,396.1L231.9,396.1z M263.8,395.8c-2.8-1.6-7.2,0.4-8,3.5c-0.7,2.7,0.7,4.4,3.5,4.5
		c1.8,0,3.6-0.8,4.8-2.1c1-1,0.9-1.7-0.5-2.2c-1.9-0.6-3.9-1.1-5.9-1.7c0.4-1.3,1.8-2,3-1.6c0,0,0,0,0,0
		C261.8,396.3,262.8,396.6,263.8,395.8L263.8,395.8z M230.4,272.6l-0.4,0.7c-0.5,1.2-1.9,1.7-3.1,1.2c-0.5-0.2-0.9-0.6-1.2-1.2
		c-1.2-2.3-1.1-5.1,0.2-7.3c0.4-0.5,0.9-0.9,1.6-0.9c1.4,0.3,1.7-0.5,2.2-1.5c-2.3-0.5-3.4-0.1-4.5,1.6c-1.6,2.5-2,5.7-1.1,8.5
		c0.6,1.9,1.9,2.9,3.3,2.6C229.2,275.9,230.4,274.4,230.4,272.6z M257.7,262.9c-1.4-0.6-2.5-0.6-3.5,0.5c-1.8,2.2-2.3,5.3-1.2,8
		c0.3,1,1.3,1.6,2.3,1.5c1.1-0.2,1.6-1,2.2-2c-0.4,0.1-0.5,0-0.5,0.1c-0.7,0.6-1.6,0.9-2.2,0.1c-0.5-0.8-0.9-1.7-1.1-2.6
		c0.5-0.3,1.1-0.6,1.7-0.8c0.5-0.1,1-0.2,1.4-0.4c0.4-0.3,0.9-0.6,1.2-0.9l-0.2-0.3l-4.1,0.5C253.5,263.5,256.1,263.8,257.7,262.9z
		 M198.8,263.3l-0.2-0.6c-0.8-0.2-1.6-0.2-2.4-0.1c-1.7,0.7-2.9,2.4-2.9,4.3c-0.3,2,0.1,3.9,1.9,5.2c1.1,0.8,1.9,0.5,2.6-0.7
		c-1.7,0.1-3.2-1.2-3.3-3c0-0.4,0-0.8,0.2-1.2c1.4,0,3,0.9,4.6-0.6l-4.5-0.6C194.6,263,197.3,264,198.8,263.3L198.8,263.3z
		 M180.3,267.1c0.4,0,0.8,0,1.2,0c2.2-0.4,4.3-0.8,5.3,2.1c0.3,1,1.1,0.6,1.6,0c-0.5-0.7-1-1.4-1.4-2.1c-0.8-1.6-1.5-3.3-2.2-5
		c-0.1-0.3-0.6-0.7-0.8-0.6c-0.4,0.1-1,0.5-1,0.7C183.1,264.3,181.9,265.6,180.3,267.1z M266.6,262.5c-1,1.2-1.6,2.7-1.5,4.2
		c0,1,0.7,1.8,1.7,2c1.8,0.1,3.5-1,4.2-2.7c-0.7,0.5-1.4,0.9-2.1,1.2c-0.9,0.5-2,0.1-2.5-0.8c-0.1-0.2-0.1-0.4-0.2-0.6
		c-0.1-1.6,0.8-3,2.4-3.5c1-0.3,2-0.6,3-1l-0.1-0.5c-2.1,1.1-4.9-0.5-6.7,1.5l0.1,0.4L266.6,262.5z M258.6,270.9
		c1.4,0.8,3,0.4,4.5-1.1c2-2,1.6-3.5-1-4.4c-0.5-0.2-0.9-1-1.3-1.5c0.4-0.4,0.9-0.7,1.4-1c0.4-0.2,0.9-0.4,1.4-0.5
		c-1.4-0.6-3,0-3.7,1.3c-0.1,0.2-0.2,0.4-0.2,0.7c-0.3,1.2,0.1,1.7,2,2.3c0.1,0,0.2,0,0.2,0.1c0.4,0.4,1.2,0.8,1.2,1.2
		c-0.1,0.6-0.5,1.2-1,1.5c-0.6,0.3-1.3,0.4-1.9,0.3C259.5,269.7,258.8,270.1,258.6,270.9C258.6,270.9,258.6,270.9,258.6,270.9
		L258.6,270.9z M215.6,86.4c-0.5,0-1.1,0-1.6,0c-0.6,0.1-1.4,0.2-1.7,0.6c-2,3-3.3,6.5-3.8,10.1C209.9,92.9,212.4,89.3,215.6,86.4
		L215.6,86.4z M240.7,107.1l0.3,0.4c1-0.8,2.5-1.5,2.7-2.4c0.4-1.9,0-3.9-0.1-6l-3.2,1.6c0.3,0.3,0.5,0.5,0.8,0.7
		c1.1,0.6,1.2,1.4,0.7,2.4S241.1,106,240.7,107.1z M208,99.1c-0.1,1.4-0.2,2.7-0.2,4c-0.1,2.5,0.5,3.2,3.2,4.1
		c-0.3-0.7-0.5-1.4-0.7-2c-0.3-0.9-1-1.8-0.9-2.5s1.1-1.4,1.7-2.1L208,99.1z M252.6,403.6l0.6,0.3c0.4-0.4,1.1-0.9,1.1-1.3
		c0.1-2.3,0-4.7,0-7.2l-1.8,0.5V403.6z M212.9,275l0.4,0.2c0.3-0.4,0.5-0.9,0.6-1.4c0.2-3.3,0.4-6.5,0.5-9.8c0-0.3,0-0.6-0.1-0.9
		C213.1,263.9,212.3,271,212.9,275z M243.2,96.9c-0.6-3.6-2-7-4-10.1c-0.3-0.4-1.1-0.4-1.5-0.5L243.2,96.9z M192.6,270.5
		c-0.3-0.1-0.5-0.2-0.8-0.3c-1.4-0.2-2-0.9-1.8-2.4c0.2-1.9,0.2-3.8,0.3-5.7l-0.5-0.1c-0.3,0.5-0.5,1.1-0.6,1.7
		c-0.2,1.9-0.3,3.7-0.3,5.6c0,0.5,0.4,1.2,0.7,1.3C190.5,270.8,191.6,271.8,192.6,270.5z M200.6,187.6l0.2-0.1l1.1-4.4l-1.9-0.9
		L200.6,187.6z M239.7,126l-0.6,0.2l2.1,4.4l0.3-0.1L239.7,126z"/>
	<path class="st0" d="M176.4,317.2c3.7,1.7,6.5,4.9,7.7,8.9c1.6,5,0.2,10.5-3.6,14.1c-0.7,0.6-1.1,1.5-1.2,2.5
		c-1.4,10.3-2.9,20.7-4.3,31c0,1.1-0.8,1.9-1.9,2c-5.2,0.9-10.3,2-15.5,2.5c-6.3,0.5-12.6,0.7-18.9,0.6c-8.1-0.2-16.2-1.2-24.1-3.1
		c-1-0.1-1.8-1-1.9-2c-1-7.5-2.1-15.1-3.2-22.6c-0.4-3.1-0.9-6.1-1.3-9.2c-0.1-0.4-0.3-0.8-0.6-1.2c-5.8-5.2-6.3-14.2-1.1-20
		c1.2-1.3,2.6-2.4,4.1-3.2c0.2-0.1,0.4-0.2,0.5-0.4c-1.6-3.8-1.7-7.5,0.5-11.1c2.1-3.3,5.7-5.3,9.6-5.2c0-2.4,0.2-4.8,0.5-7.1
		c2.2-11.3,15-17.4,25.3-12.1c1.6,0.8,1.8,1.9,0.4,3c-1.7,1.3-2.5,3.5-2,5.6c0.4,2.2,2.1,4.1,4.3,4.6c3.8,1.3,7.6,2.7,11.4,4.2
		c2,0.8,4,1.4,6.1,1.8c6.1,0.4,10.7,5.7,10.3,11.8c-0.1,1.3-0.4,2.5-0.9,3.7C176.6,316.6,176.5,316.8,176.4,317.2z M144.2,283.6
		c-1.6-0.3-3.2-0.6-4.8-0.7c-8.1-0.2-14.9,6.3-15,14.4c0,0.8,0,1.5,0.1,2.3c0.1,1.5,1,2.9,2.3,3.5c9,4.9,18.6,6.1,28.6,4.5
		c1.2-0.2,2-0.1,2.4,1.1c0.3,0.9-0.5,1.7-1.9,1.9c-1.2,0.2-2.4,0.3-3.5,0.4c-9.9,0.9-19.3-0.6-27.9-5.9c-3.6-2.2-8.4-1-10.5,2.7
		c-0.4,0.7-0.7,1.4-0.9,2.2c-0.5,2.3,0,4.8,1.4,6.7c0.9,1.3,0.6,2.1-0.9,2.6c-0.3,0.1-0.6,0.2-0.9,0.3c-5.6,2.4-8.3,8.9-5.9,14.5
		c2.4,5.6,8.9,8.3,14.5,5.9c0.4-0.2,0.8-0.4,1.2-0.6c2.1-1.3,2.1-1.3,3.8,0.4c9.7,8.9,24.5,8.9,34.3,0.1c1.9-1.7,1.9-1.7,4-0.4
		c5.4,2.9,12.1,0.9,15-4.5c2.9-5.4,0.9-12.1-4.5-15c-0.5-0.3-1.2-0.2-1.5,0.2c-2.9,2.9-6.4,5.1-10.2,6.5c-10.1,4-20.4,3.5-30.8,1.2
		c-1-0.2-1.7-0.8-1.4-1.9s1.2-1.3,2.3-1c7.7,1.7,15.4,2.3,23.2,0.7c5.7-1.2,10.9-3.5,14.8-7.9c1.6-1.8,2.9-3.7,2.8-6.2
		c-0.2-4.4-4-7.9-8.4-7.7c-0.5,0-1,0.1-1.4,0.2c-0.7,0.1-1.5,0-2.1-0.4c-1.4-0.8-2.7-2-4.1-2.6c-3.2-1.3-6.4-2.3-9.7-3.4
		c-3-0.8-5.3-3.2-6.1-6.1C141.8,288.9,142.3,285.9,144.2,283.6L144.2,283.6z M127.2,374.6c0-0.4,0-0.8,0-1.1
		c-0.4-6-0.8-11.9-1.1-17.9c-0.3-4-0.5-7.9-0.8-11.9c-0.1-1.3-0.6-1.5-1.8-1c-0.8,0.4-1.7,0.7-2.5,1c-0.8,0.2-1.1,0.6-0.9,1.5
		c0.1,0.4,0.1,0.8,0.1,1.2c0.8,8.1,1.6,16.2,2.4,24.3c0.4,3.6,0.5,3.9,4.3,4C127,374.7,127.1,374.6,127.2,374.6L127.2,374.6z
		 M167.5,344.1c-0.7-0.3-1.4-0.5-2.1-0.7c-1-0.1-1.9-1.7-2.7-0.7c-0.6,0.7-0.6,2-0.6,3.1c-0.5,6.4-0.9,12.8-1.3,19.2
		c-0.2,3.2-0.4,6.4-0.6,9.8l4.4-0.7L167.5,344.1z M111.5,343.4c0,0.5,0,1,0.1,1.5c1.1,7.7,2.2,15.5,3.3,23.2c0.2,1.4,0,3,0.7,4
		s2.4,1,3.7,1.4c0.1,0,0.2,0,0.4-0.1l-2.9-28.9L111.5,343.4z M152.7,375.4c1.2-0.1,2.2-0.2,3.3-0.2c0.8,0,1-0.3,1-1.1
		c0.5-8.1,1.1-16.2,1.6-24.3c0.1-1.4,0.1-2.9,0.2-4.4c-1.6,0.7-3,1.5-4.4,2.1c-0.7,0.2-1.1,0.9-1,1.5c-0.2,7.6-0.5,15.2-0.8,22.8
		C152.7,373.1,152.7,374.2,152.7,375.4L152.7,375.4z M167.7,373.5c1.1-0.2,2-0.4,2.9-0.5c0.8,0,1.4-0.6,1.4-1.4c0,0,0,0,0,0
		c0.7-5.6,1.6-11.2,2.4-16.8c0.5-3.8,1.1-7.5,1.6-11.4l-5.4,1.1L167.7,373.5z M134.7,375.5c0-0.4,0.1-0.6,0.1-0.9
		c-0.1-5-0.3-9.9-0.4-14.9c-0.1-3.5-0.3-7.1-0.4-10.7c0-0.4-0.1-1.1-0.4-1.2c-1.6-0.8-3.2-1.5-5-2.4l2,29.6L134.7,375.5z
		 M142.2,349.7L137,349l0.9,26.7h4.2L142.2,349.7z M145.4,349.7v26c0.8,0,1.7,0,2.5,0c1.4,0.2,1.8-0.4,1.8-1.7
		c0.2-7.9,0.5-15.9,0.8-23.8c0-0.4,0-0.8,0-1.2L145.4,349.7z"/>
	<path class="st0" d="M209.9,404c-0.6-2.8-3.1-3.2-5.1-4.4c-1,1.4,0.3,3.8-1.8,4.6c0-2.7,0-5.4,0-8.1c0-0.3,0.7-0.6,1.3-1
		c0.6,3.2,3,4.1,5.5,5.5c0-1.3,0.1-2.4,0-3.4s0.5-1.8,1.7-2c0,1.8,0,3.5,0,5.1c0,0.6,0,1.3-0.1,1.9
		C211.3,403.5,211.2,403.6,209.9,404z"/>
	<path class="st0" d="M199.8,400.5c0.9-1.8-1-4.2,1.8-5.4c0,2.5,0,4.8,0,7c0.1,0.8-0.4,1.6-1.2,1.9c-0.1,0-0.2,0-0.3,0
		c-0.5-2.8-3.1-3.2-5.1-4.5c-0.9,1.5,0.2,3.6-2.1,4.8l0.3-6.4c0-0.6,0-1.2,0.1-1.8c0.1-0.3,0.3-0.6,0.6-0.7c0.3,0,0.6,0.2,0.8,0.5
		C195.5,398.6,197.8,399.3,199.8,400.5z"/>
	<path class="st0" d="M191.9,403.2c-1.2,1.1-1.8,1.2-2.8,0c-0.8-1.1-2.3-1.5-3.6-1c-1.4,0.3-2.8,0.9-4.3,1.3l-1.4,0.5
		c1-1.2,1.9-2.4,2.7-3.7c0.6-1.1,0.7-2.4,1.1-3.5c0.3-0.5,0.7-0.9,1.3-1.1c0.5,0,1,0.2,1.3,0.5c1,1.5,1.9,3.1,3,4.5
		C190,401.6,190.9,402.4,191.9,403.2z M187,400.6l-1.5-2.4l-2.9,4L187,400.6z"/>
	<path class="st0" d="M217.8,404.1c-2.9,0-4.7-1.2-5.3-2.9c-0.4-1.2,0.2-2.8,1.5-4c1.4-1.2,3.2-1.8,5-1.8c0.5,0,0.9,0.1,1.3,0.2
		c1.5,0.3,2.6,1.4,2.9,2.9c0.3,1.4-0.3,2.9-1.5,3.7C220.7,403.3,219.3,403.9,217.8,404.1z M221.8,400.1c0.1-2.2-1.6-4-3.8-4.1
		c-2.1,0.1-3.8,1.7-3.9,3.8c0,2,2.1,3.6,4.7,3.5C220.5,403.3,221.9,401.9,221.8,400.1C221.8,400.1,221.8,400.1,221.8,400.1
		L221.8,400.1z"/>
	<path class="st0" d="M342.7,77.4c2.7,0.1,5,0.1,7.3,0.2c1.5,0,2.9,0.1,4.4,0.3c2.7,0.4,3.7,2,3.7,4.8c0.1,3.5,0.5,7,0.9,10.5
		c0.9,7.9,1.1,15.7-1.3,23.4c-1.9,6.8-6.9,12.2-13.5,14.6c-1.4,0.5-1.5,1.2-1.2,2.4c0.3,0.8,0.6,1.6,1,2.4c1.2,2,0.8,4.5-0.8,6.1
		c-2.1,2.3-4.9,3.4-7.8,4.3c-11.4,3.2-23.5,3-34.9-0.6c-2-0.8-4-1.8-5.7-3.1c-2-1.2-2.7-3.7-1.8-5.8c2-4.2,2-8.7,1.9-13.1
		c-0.1-6.8-0.5-13.5-0.5-20.2c0-6,0.5-12,0.7-18c0.1-4.3-0.5-8.5-3.4-12.1c-3.5-4.4-1.6-14.6,5.7-16.3c1.3-0.2,2.5-1.1,3.1-2.3
		c1-1.7,2.6-3,4.4-3.7c3.9-1.9,8.5-2.3,12.6-1c2.1,0.5,3.9,1.8,5.1,3.5c0.4,0.7,1.2,1,1.9,0.7c4-1,7.8-0.3,11,2.5
		c0.6,0.5,1.2,1.2,1.5,1.9c0.4,0.9,1.3,1.5,2.3,1.5c6,0.8,8.8,6.8,5.7,12c-0.5,0.9-1.2,1.8-1.7,2.8
		C343.2,75.6,342.9,76.5,342.7,77.4z M322,59.1c-1.7-4.2-5.4-6.4-10.4-6.2c-4.7,0.2-7.4,2.4-8.8,7.3c-2.1-0.5-4.2,0-5.9,1.3
		c-4.1,3.2-3.8,12.3,2,14.4c0.9,0.3,1.7,0.7,2.5,1.1c3,1.3,5.2,3.5,5.8,6.7c0.4,2.8,0.5,5.6,0.3,8.4c-0.2,4.1-0.8,8.2-1.3,12.2
		c-0.2,1.6,0.6,2.6,1.5,3.7c1.6,1.8,3.5,1.5,5.4,0.9c1.6-0.5,2.7-2.1,2.5-3.9c0-1.7-0.2-3.5-0.4-5.2c-0.5-4.1-1.6-8.2-1-12.3
		c0.5-3.6,2.1-6.5,5.5-8c2.9-1.1,5.9-2,9-2.8c3.1-0.9,6.2-1.5,9.2-2.5c2.1-0.7,3.6-2.6,3.9-4.8c0.8-3.7-1.6-6.4-5.4-6.1l-1,0.1
		C334.2,57.8,327.2,55.7,322,59.1z M343,121.1c2.5-0.4,4.7-1.8,6.2-3.9c1.9-2.7,3-5.9,3.1-9.2c0.2-4.8,0.1-9.6,0-14.3
		c-0.1-2.4-0.4-4.8-0.8-7.2c-0.1-0.6-0.5-1.4-0.9-1.5c-1.8-0.3-3.6-0.4-5.4-0.4c-1.6,0-2,0.7-2,2.2c0,10.9,0,21.8,0,32.7L343,121.1z
		 M318.1,90.1c0.5,0,0.9,0.1,1.4,0.1c2.5-0.2,5-0.2,7.5-0.5c3.9-0.4,7.8-1.4,11.4-3c0.3-0.2,0.8-0.5,0.8-0.8
		c0.1-1.9,0.2-3.8,0.2-5.7c-0.1-0.7-0.2-1.5-0.5-2.2c-2.6,0.7-4.9,1.3-7.2,2c-3.2,0.8-6.3,1.7-9.4,2.8
		C319.2,83.9,318.1,86.7,318.1,90.1L318.1,90.1z M303.8,88.5c-0.1-4.5-2.6-8.2-5.5-8.4c0,1.8,0,3.6,0,5.5c0,0.4,0.3,0.7,0.6,0.9
		C300.4,87.1,302,87.7,303.8,88.5L303.8,88.5z"/>
	<path class="st0" d="M91.9,203.1l0.7,2.6l3.1-1.2c2-0.8,3.1-0.3,3.6,1.9c0.5,2.5,0.3,5-0.5,7.4c-0.6,1.2-0.4,2.6,0.5,3.6
		c0.9,1.3,1.4,2.8,1.5,4.4c0.5,4.5,0.5,9-1.5,13.3c-1.3,3-4.5,4.8-7.8,4.2c-2-0.2-2.9-1.1-2.8-3.1c0.2-6.2,0.5-12.5,0.7-18.7
		c0.1-3.4,0.5-6.7-0.3-10.1C88.6,205.8,90,203.8,91.9,203.1z M98.9,227.5l-0.4-0.1c0-0.8,0.1-1.6,0-2.5c-0.3-3-1.7-5-3.9-5.5
		c-1.9-0.4-2.9,0.2-3.1,2.1c-0.2,3.7-0.4,7.5-0.4,11.2c0,0.8,0.3,1.5,0.9,2c1.6,1.2,4.6,0.5,5.3-1.4C98,231.4,98.5,229.4,98.9,227.5
		L98.9,227.5z M91.7,217.5l0.5,0.2c1.6-1.4,3-2.9,4.3-4.6c1.7-2.5,0.2-5.3-2.8-5.7c-1-0.1-1.4,0.1-1.5,1
		C92.1,211.4,91.9,214.4,91.7,217.5L91.7,217.5z"/>
	<path class="st0" d="M376.6,235.6c0.4-6.8-2.7-12-7.2-17.2c-0.1,4.2-0.1,8.1-0.2,11.9c-0.1,1.9-0.3,3.8-0.6,5.7
		c-0.2,0.7-0.5,1.3-0.9,1.9l-0.4-0.1c-0.1-0.6-0.2-1.1-0.2-1.7c-0.1-10-0.1-20-0.2-30c0-1-0.1-2,0-3c0-1.1,0.9-1.9,1.9-2
		c0,7.2,2.6,14.2,7.4,19.6c0-0.6,0.1-1.1,0.1-1.5c-0.1-4.8-0.3-9.6-0.3-14.4c0.1-1.6,0.4-3.2,0.8-4.8c0.2-0.6,0.7-1.2,1.3-1.5
		c0.1,0.5,0.2,1,0.3,1.5c0.1,3.4,0.1,6.9,0.1,10.3c0.1,6.4,0.2,12.8,0.2,19.2c-0.1,1.4-0.3,2.8-0.7,4.1c-0.3,0.7-0.6,1.3-1.1,1.9
		L376.6,235.6z"/>
	<path class="st0" d="M351.4,204.6c0.8,3.5,1.4,7.1,2.3,10.5s3.3,6.2,5.2,9.2l0.4-0.1c0-1.9,0-3.8,0-5.6c-0.1-4.1-0.2-8.2-0.2-12.3
		c0-1.7,0.8-3.3,2.1-4.3c0.1,2.4,0.2,4.5,0.3,6.6c0.1,7.3,0.1,14.5,0.2,21.8c0,2.4,0.3,4.8-0.7,7.1c-0.3,0.7-0.8,1.4-1.3,1.9
		c0.2-6.9-2.9-12.3-7.5-17.2c0,1.9,0,3.8,0,5.6c-0.1,3.6-0.3,7.2-0.5,10.8c0.1,1.2-0.6,2.3-1.7,2.7c0-2.4,0-4.6,0-6.8
		c0-7.6,0-15.3,0-22.9c0-1.5-0.1-3-0.1-4.5C349.9,205.9,350.2,204.8,351.4,204.6z"/>
	<path class="st0" d="M239.1,219.8c-1,0-2,0-3,0c-1.1-0.1-2,0.6-2.2,1.6c-0.5,1.3-0.3,2.9,0.4,4.1c1.3,1.7,2.7,3.2,4.1,4.9l0.3-0.2
		V225c1.4,1.7,2.7,3.2,2.7,5.6c0,6.8,0.2,13.7,0.2,20.5c0,1.4-0.2,2.8-0.3,4.1l-0.5,0.1c-0.3-0.8-0.7-1.5-1.1-2.2
		c-0.2-0.4-0.7-0.9-1.1-0.9c-3.2-0.2-6.1-2.2-7.3-5.2c-2.2-5.2-2.6-11-0.9-16.4c0.2-0.7,0.5-1.4,1.1-1.9c0.8-0.6,1.1-1.7,0.6-2.6
		c-0.9-2.5-1.1-5.3-0.6-7.9c0.4-1.9,1.2-2.4,3.1-2C236.8,216.3,238.6,217.7,239.1,219.8z M239.3,241.2L239.3,241.2
		c0-2.4-0.1-4.7-0.2-7.1c0.1-1.2-0.8-2.2-2-2.3c-1.8-0.5-3.8,0.5-4.3,2.4c-1.1,3.1-1.2,6.4-0.3,9.5c0.7,2.7,1.9,4,4.7,3.9
		c1.5,0,2-0.4,2.1-1.9S239.3,242.7,239.3,241.2L239.3,241.2z"/>
	<path class="st0" d="M184.2,256.3c0-4.4,0-8.4,0-12.4c0-2.9,0.1-5.8,0.1-8.8c0-4.3,0-8.6,0.1-12.9c0-1.7,0.1-3.5,0.2-5.2
		c0-0.6,0.2-1.3,0.5-1.8c0.3-0.4,1-0.6,1.5-0.9c0.2,0.5,0.3,1,0.4,1.4c0,0.6-0.1,1.3-0.2,1.9l0.4,0.2c0.6-0.4,1.2-0.9,1.8-1.3
		c2.5-2.2,5-2,6.6,0.9c1.1,2.1,1.9,4.3,2.2,6.7c1,5.4,0.8,11-0.6,16.3c-1,3.2-2.9,6.2-5.4,8.4c-0.7,0.7-2.2,0.8-3.3,0.7
		c-1.5-0.1-2.2,0.3-2.4,1.8c-0.2,1.1-0.5,2.1-0.9,3.2C184.9,255.2,184.6,255.7,184.2,256.3z M186.7,233h-0.2c0,3.3,0,6.6,0,9.9
		c-0.1,1.5,0.8,2.9,2.3,3.4c1.6,0.5,3.3,0.6,4.5-1c0.6-0.8,1.1-1.8,1.5-2.8c1.6-5,1.4-10.2,0.7-15.3c-0.3-2.7-1.1-5.3-2.5-7.6
		c-1.4-2.1-3.3-2.3-4.9-0.3c-0.6,0.7-1,1.6-1.1,2.5C186.6,225.6,186.7,229.3,186.7,233z"/>
	<path class="st0" d="M323.3,245.1c0-1.9,0-3.8,0-5.7c0-2.9,0.1-5.7,0.2-8.6c0-5.8,0-11.7,0-17.5c0.1-1.8,0.9-3.4,2.2-4.6l0.2,3.4
		c0.7-0.8,1.2-1.4,1.7-2c0.4-0.5,0.8-0.9,1.2-1.2c2.4-1.8,4.5-1.2,5.8,1.4c1.2,2.6,1.8,5.5,1.8,8.4c0.5,6.9-0.5,13.5-4.1,19.6
		c-0.3,0.5-0.5,1.1-0.6,1.7l3.1-0.4c0.4,1.8-0.6,3.6-2.3,4.2c-1.8,0.4-3.6,0.6-5.1-0.8c-0.4-0.4-1-1.2-0.8-1.5
		c0.4-1,0.4-2.5,1.9-2.5c2,0,2.9-1.1,3.7-2.8c2.8-6.4,3.2-13.7,1-20.4c-0.3-0.9-0.7-1.8-1.1-2.6c-1.2-2.1-3-2.2-4.5-0.3
		c-1.2,1.7-1.9,3.7-1.8,5.8c0,3.9,0,7.9,0,11.8c0,3.6-0.1,7.1-0.1,10.7C325.6,242.8,324.7,244.3,323.3,245.1z"/>
	<path class="st0" d="M123.7,244.7c0-1.6-0.1-3.2,0-4.9c0.2-6,0.5-12,0.8-18c0.1-3.1,0.1-6.1,0.3-9.2c0.2-1.6,1-3,2.4-3.9v3.9
		c0.7-0.6,1.2-1.1,1.7-1.5c2.7-2.2,5.3-1.7,6.8,1.5c0.8,1.7,1.3,3.6,1.6,5.5c0.9,5.5,0.5,11.1-1.2,16.3c-0.9,2-1.9,4-3,5.9
		c-0.2,0.5-0.4,0.9-0.8,1.6c0.9,0.1,1.6,0.2,2.2,0.3c1,0.1,1.4,0.5,1,1.5c-0.9,2.4-3.5,3.1-5.9,1.5c-0.6-0.4-1.2-0.9-1.7-1.4
		c-1.3-1.3-1.3-1.7-0.2-3.1c0.4-0.4,0.9-0.7,1.5-0.7c2.5,0.2,2.5,0.2,3.6-2c3.6-7.2,3.4-14.6,0.8-22c-0.2-0.4-0.4-0.8-0.6-1.2
		c-0.6-1-1.3-1.9-2.5-1.9c-1.2,0-2.3,0.9-2.6,2.1c-0.5,1.5-0.9,3-1,4.6c-0.3,6.9-0.4,13.8-0.7,20.7c-0.1,1.3-0.5,2.5-0.9,3.7
		c-0.1,0.4-0.6,0.6-0.9,0.9L123.7,244.7z"/>
	<path class="st0" d="M73.9,235.8c0-1.9-0.1-3.5,0-5.2c0.2-5.2,0.5-10.4,0.8-15.6c0.2-3.9,0.3-7.7,0.5-11.6c0.2-1.4,1.1-2.7,2.4-3.3
		v3.6c0.6-0.5,1.1-0.9,1.6-1.3c2.4-1.9,4.8-1.4,6.4,1.2c1.3,2.4,2,5.1,2.1,7.9c0.4,5,0.3,10.1-1.6,14.8c-0.8,1.9-1.8,3.7-3,5.5
		c-0.9,1.4-0.8,1.6,0.8,2.1c0.6,0.2,1.9-0.2,1.7,1.2c-0.1,1.4-1.2,2.5-2.6,2.6c-2.5-0.1-4.3-1.5-5.8-3.4c-0.7-0.9-0.1-1.5,0.3-2.1
		c0.4-0.5,0.9-0.8,1.5-0.9c2.7,0.4,2.8,0.4,4.1-2.1c3.6-7.4,3.2-14.8,0.4-22.2c-0.2-0.5-0.5-1.1-0.9-1.5c-1.2-1.5-3.1-1.5-4.1,0.2
		c-0.7,1.2-1.2,2.5-1.3,3.9c-0.3,4.7-0.4,9.4-0.7,14.1c-0.1,3-0.3,5.9-0.4,8.9C76.1,233.9,75.2,235.2,73.9,235.8z"/>
	<path class="st0" d="M290,240c-3.7,1.4-6.7,3.2-8.3,6.8c-0.5,0.9-1.1,1.7-1.7,2.4l-0.5-0.3l0.8-3.5c1.1-4.8,2.4-9.5,3.2-14.4
		c0.6-3.7,0.9-7.4,1-11.1c0-1.7-0.3-3.4,0.9-4.9c0.5-0.6,1-1.2,1.5-1.9h0.4c0.3,1.3,0.6,2.7,0.9,4c1.6,7,3.2,14,5,21
		c0.5,1.9,1.8,3.5,2.7,5.3c0.1,0.2,0.3,0.5,0.3,0.7c-0.3,1.9-1.3,3.7-2.8,5L290,240z M283.3,241.3l0.2,0.2c1.5-1.8,3.1-3.6,4.6-5.5
		c0.7-0.8,0.9-1.9,0.5-2.9c-0.3-1-0.5-2.1-0.7-3.2c-0.3-1.3-0.6-2.7-1-4.3L283.3,241.3z"/>
	<path class="st0" d="M275.5,249.9c-0.3-0.9-0.6-1.8-0.8-2.6c-1-5-2.5-9.8-4.5-14.4c-0.1-0.2-0.2-0.4-0.4-0.8
		c-0.5,6.5,0.7,12.9-1.6,18.9h-0.5c-0.1-0.5-0.2-0.9-0.3-1.4c0.2-10.9,0.3-21.8,0.5-32.7c-0.1-1.3,0.7-2.5,1.9-3v15.3
		c2.6-4.9,2.6-10.7,5.3-15.5l0.6,0.1c0.1,0.7,0.1,1.3,0,2c-0.9,3.5-1.8,6.9-2.8,10.4c-0.2,0.5-0.2,1-0.2,1.4
		c1.3,4.9,2.7,9.8,4.1,14.7c0.4,0.9,0.9,1.8,1.4,2.6c0.1,0.3,0.4,0.8,0.2,1c-0.7,1.4-1.5,2.8-2.2,4.1L275.5,249.9z"/>
	<path class="st0" d="M322.2,225.2c-0.2,6.8-0.9,12.7-4.2,17.9c-0.9,1.3-2.1,2.4-3.4,3.2c-1.3,0.8-2.5,0.4-3.5-0.9
		c-0.5-0.7-1-1.5-1.4-2.4c-2.3-5.4-3-11.3-2-17c0.6-4.3,1.6-8.5,4.1-12.2c0.6-0.9,1.4-1.8,2.3-2.5c1.3-1.1,3.2-1,4.4,0.3
		c0.1,0.1,0.1,0.1,0.2,0.2c1.8,2,2.5,4.4,2.9,7S322,223.6,322.2,225.2z M319.9,230.4h0.4c-0.4-3.2-0.6-6.5-1.2-9.7
		c-0.5-2.2-1.2-4.3-2.2-6.2c-0.9-1.8-2.6-1.8-3.8-0.1c-0.4,0.6-0.7,1.2-1,1.8c-1.9,4.9-2.6,10.1-2.1,15.3c0.1,2.9,0.7,5.7,1.9,8.3
		c0.8,1.5,1.7,2.8,3.5,3.1c1.2,0.2,2,0.1,2.5-1.3C319.2,238,320.5,234.4,319.9,230.4L319.9,230.4z"/>
	<path class="st0" d="M153.4,227.9c0.1,4.4-0.7,8.9-2.3,13c-0.8,1.9-1.9,3.7-3.3,5.3c-2.1,2.3-4.8,1.9-6.2-0.9
		c-1.8-3.5-2.8-7.4-3-11.4c-0.4-4.8,0.2-9.5,1.9-14c0.8-2,1.8-3.9,3.1-5.6c2.2-2.9,5.1-2.7,7.1,0.4c1.4,2.4,2.2,5,2.4,7.8
		C153.2,224.2,153.2,226.1,153.4,227.9z M151.2,231.4c-0.2-2.7-0.4-5.4-0.8-8c-0.2-2.8-1.1-5.5-2.6-7.9c-1.1-1.6-2.5-1.7-3.6-0.1
		c-0.6,0.8-1.1,1.7-1.4,2.6c-1.7,4.7-2.4,9.7-1.8,14.7c0.4,2.7,1,5.4,1.9,8c0.5,1.7,1.8,3,3.4,3.5c0.8,0.4,1.7,0.2,2.2-0.6
		c0.1-0.1,0.1-0.2,0.2-0.4C150.5,239.6,151.4,235.5,151.2,231.4z"/>
	<path class="st0" d="M73.3,213.6c-0.1,5.8-0.6,10.8-3,15.3c-0.7,1.3-1.5,2.4-2.6,3.4c-2.2,2.1-5.1,1.7-6.2-1.1
		c-1.2-2.8-2.1-5.7-2.7-8.7c-1.2-6.5-0.3-13.2,2.6-19.2c0.7-1.3,1.6-2.5,2.7-3.6c1.9-1.9,4.2-1.6,5.9,0.5c1.9,2.6,2.6,5.6,3,8.7
		C73.2,210.7,73.2,212.5,73.3,213.6z M60.9,215.8c0,0.7,0,1.5,0,2.2c0.1,3.2,0.8,6.4,2.2,9.4c0.9,1.7,2,3.1,4,3.4
		c0.4,0,0.8-0.1,1.1-0.4c0.8-1.9,2-3.7,2.3-5.7c1.1-6.5,0.8-13.2-1-19.5c-0.4-1.3-1-2.5-1.7-3.7c-1-1.4-2.3-1.4-3.4,0
		c-0.6,0.8-1.1,1.7-1.5,2.7C61.4,207.9,60.7,211.8,60.9,215.8z"/>
	<path class="st0" d="M392.3,214.3c0,1.6,0,3.1,0,4.7c-0.2,4.6-0.4,9.3-0.6,13.9c-0.1,1.6-0.9,3.2-2.3,4.1l0.6-9l-0.4-0.2
		c-0.3,0.5-0.5,0.9-0.9,1.4c-0.7,1-1.4,1.9-2.3,2.7c-1.1,0.9-2.7,0.7-3.6-0.3c-0.1-0.1-0.2-0.2-0.2-0.3c-1.4-2-2.3-4.4-2.4-6.9
		c-0.7-6.9-0.1-13.9,2-20.5c0.7-1.8,1.5-3.6,2.6-5.2c0.9-1.4,2.5-2.2,4.2-2.1c0.8-0.1,1.4,0.5,1.5,1.2c0,0.2,0,0.4-0.1,0.6
		c-0.4,2.4-1.6,3.1-3.8,2.4c-0.8-0.4-1.8,0-2.2,0.8c0,0.1-0.1,0.2-0.1,0.3c-0.7,2-1.4,4-1.9,6c-1.3,4.9-1.2,10,0.2,14.8
		c0.3,1.1,0.9,2.2,1.6,3.1c1.1,1.4,2.7,1.4,3.7-0.2c0.8-1.5,1.4-3,1.8-4.7c0.5-1.6,0.7-3.4,1.1-5c0.2-0.6,0.6-1.1,1-1.6L392.3,214.3
		z"/>
	<path class="st0" d="M297.4,252.9c-0.1-0.4-0.2-0.9-0.2-1.4c0-2.6,0-5.2-0.1-7.8c-0.1-8.7-0.2-17.3-0.1-26c0.1-2.1,0.3-4.2,0.8-6.2
		c0.2-0.6,0.6-1.2,1-1.6l0.5,0.1l0.3,2.3c0.1,0,0.3,0,0.3-0.1c0.5-0.9,0.9-2.2,2.1-1.9c1.5,0.4,2.9,1,4.2,1.8c0.9,0.6,0,2.7-1.2,2.9
		c-0.7,0.1-1.4,0.1-2.2,0c-1.8-0.3-2.3-0.2-2.8,1.5c-0.4,1.7-0.6,3.4-0.7,5.1c-0.1,1.3,0,2.6,0,4c0,1.1,0.5,1.7,1.7,1.4
		c1.4-0.4,2.9-0.8,4.3-1.2c0.5,3.7-1.1,5.3-3.6,5.1c-2.1-0.2-2.4,0.3-2.4,2.5c0.1,5,0.1,10,0.2,15c0,1.9-1.1,3.1-1.8,4.7
		L297.4,252.9z"/>
	<path class="st0" d="M255.1,213.4l0.2,2.4c0.2-0.2,0.4-0.4,0.5-0.7c0.8-1.4,1.5-1.7,3-1.1c0.8,0.4,1.6,0.8,2.4,1.3
		c0.8,0.3,1.2,1.3,0.8,2.1c-0.1,0.9-1,1.5-1.9,1.4c-0.8-0.2-1.6-0.3-2.4-0.3c-0.5,0-1.4,0.2-1.5,0.6c-0.6,1.2-1,2.4-1.2,3.7
		c-0.1,2-0.1,3.9,0,5.9c0,1.5,0.3,1.8,1.8,1.6s2.8-0.6,4.4-0.9c0,0.8,0,1.5-0.1,2.3c-0.4,2-1.5,2.9-3.6,2.7s-2.5,0.2-2.5,2.3
		c0,5,0,10,0.2,14.9c0,1.9-1.1,3.1-1.8,4.7H253c-0.1-0.5-0.2-1-0.2-1.5c0-4.8,0-9.7,0-14.5c0-6.6,0-13.2,0.1-19.9
		c0.1-1.9,0.4-3.7,0.8-5.5c0.1-0.5,0.6-1,1-1.5L255.1,213.4z"/>
	<path class="st0" d="M339.6,220.8l9.5-1.9c-0.4,1-0.6,1.8-1,2.5c-1.2,2.4-3.6,2.6-5.9,3c-0.3,0.1-0.7,0.1-1,0.1
		c-1.2,0-1.6,0.7-1.6,1.7c0.1,2.9,0.3,5.8,1.5,8.5c0.3,0.7,0.6,1.3,1.1,1.9c1.3,1.7,2.7,2,4,0.3c0.3-0.3,0.6-0.5,1-0.5
		c-0.1,0.7-0.3,1.3-0.5,1.9c-0.4,0.8-1,1.5-1.3,2.4c-0.6,1.3-2.2,1.8-3.4,1.2c-0.5-0.2-0.9-0.6-1.1-1c-1.1-1.9-2-4-2.5-6.1
		c-1.7-8.1-0.9-16.5,2.3-24.1c0.3-0.7,0.7-1.4,1.1-2c1.8-2.7,3.2-3.1,6.2-1.7c-0.3,2.2-0.9,2.9-3,3.1c-1.8-0.1-3.4,1.2-3.6,3
		C340.8,215.6,340.2,218,339.6,220.8z"/>
	<path class="st0" d="M208.7,246.7c-0.1,2-1.1,3.8-2.6,5.1c-0.8,0.7-2.8,0.1-3.4-1.1c-1.2-2-2-4.2-2.6-6.5c-1.4-7-1-14.2,1.3-20.9
		c0.7-2,1.7-3.9,3-5.6c1.2-1.5,3.5-1.7,5-0.5c0.1,0.1,0.3,0.3,0.4,0.4c0.2,0.3,0.3,0.7,0.1,1.1c-0.4,0.7-1,1.2-1.6,1.6
		c-0.8,0.2-1.6,0.2-2.4,0c-0.9-0.2-1.8,0.4-2.1,1.3c-1.2,2.6-1.9,5.4-2,8.3h8.7c0.2,1.6-1.1,3.7-2.5,3.8c-1.7,0.2-3.3,0.2-5,0.1
		c-1,0-1.4,0.2-1.4,1.1c-0.2,3.5,0.3,7,1.7,10.2c0.3,0.5,0.6,1.1,0.9,1.5c1.2,1.7,2.2,1.8,3.9,0.6
		C208.1,247.1,208.2,247,208.7,246.7z"/>
	<path class="st0" d="M183.1,239.2c-0.1,4.2-1.4,7.9-4.7,10.6c-1.6,1.3-3.4,0.7-5,0c-1.3-0.5-2.2-1.8-2.1-3.2
		c0.3-0.9,0.8-1.7,1.5-2.3c0.1-0.1,1.1,0.2,1.4,0.6c1.1,1.5,2.3,2.1,4.1,1.7c1.4-0.4,2.3-1.6,2.4-3c0.7-3.9-0.1-7.5-3.3-10.1
		c-3.8-3.2-4.2-7.2-2.9-11.6c0.8-2.1,1.8-4.1,3-5.9c0.4-0.7,1.1-1.1,1.9-1.3c0.8-0.2,1.6,0,2.2,0.5c0.3,0.8,0.4,1.6,0.1,2.4
		c-0.4,0.5-1,0.9-1.6,0.9c-1.1,0.1-2.4-0.5-3,0.6c-0.6,1.3-0.9,2.7-0.9,4.2c-0.1,2.4,1,4.7,2.9,6.2
		C182.1,232.1,183.1,235.4,183.1,239.2z"/>
	<path class="st0" d="M104.2,205.2c0.2,0.6,0.4,1.2,0.5,1.8c0.9,5.3,1.8,10.7,2.7,16c0,0.2,0.1,0.3,0.5,0.5c0.4-1.7,0.8-3.5,1.2-5.2
		c0.6-2.8,1.3-5.7,1.9-8.5c0.1-0.6,0.3-1.2,0.7-1.8c0.4-0.4,0.9-0.8,1.4-1.1c0.1,0.5,0.2,1.1,0.1,1.7c-1.6,6.8-3.3,13.5-4.8,20.3
		c-0.5,2.5-0.2,5.3-0.6,7.9c-0.4,1.6-0.9,3.2-1.6,4.7c-0.1,0.2-0.4,0.3-0.8,0.6c0-2.2-0.1-4.2,0-6.1c0.5-6.2-0.7-12.3-1.8-18.4
		c-0.5-2.8-1.2-5.5-1.4-8.3c-0.1-1.3,0.7-2.6,1-3.9L104.2,205.2z"/>
	<path class="st0" d="M170.1,246.1c0,0.2,0,0.3-0.1,0.5c-0.6,1-1,2.8-1.9,3c-1.5,0.4-3.2-0.1-4.8-0.4c-0.3-0.1-0.7-1-0.7-1.5
		c0-4.6,0.2-9.2,0.3-13.8c0.1-5.5,0.2-11,0.4-16.6c0.2-1.2,0.6-2.3,1.1-3.3l0.7,0.1c0,0.5,0,1,0,1.5c-0.1,9.3-0.2,18.5-0.4,27.8
		c0,2,0.4,2.4,2.4,2.5C168.1,245.9,169.1,246.1,170.1,246.1z"/>
	<path class="st0" d="M156.6,213.1c0,1.4,0,2.5,0,3.7c-0.1,7-0.2,13.9-0.4,20.9c0,1.7-0.1,3.5-0.1,5.2c-0.1,1.1,0.6,2,1.7,2.2
		c0.1,0,0.2,0,0.3,0c1.1,0.1,2.2,0.2,3.6,0.4c-0.6,1.2-1.2,2.3-1.8,3.4c-0.2,0.2-0.4,0.3-0.7,0.3c-1.4-0.1-2.7-0.3-4.1-0.5
		c-0.5-0.2-0.9-0.7-1-1.3c0.1-6.8,0.3-13.6,0.4-20.4c0.1-3.1,0.1-6.2,0.1-9.3C154.7,215.2,155.1,214.4,156.6,213.1z"/>
	<path class="st0" d="M213.5,216.4c0.1,0.8,0.1,1.4,0.1,2c-0.1,9.1-0.2,18.3-0.2,27.4c0,1.9,0.4,2.4,2.4,2.4c1,0,1.9,0,3.3,0
		c-0.7,1.4-1.2,2.5-1.8,3.5c-0.1,0.2-0.6,0.3-1,0.4c-1.1,0-2.3,0-3.4,0c-1,0-1.5-0.5-1.5-1.5c0.1-2.6,0.2-5.2,0.2-7.8
		c0.1-7.3,0.1-14.6,0.1-21.9C211.6,219.2,212.2,217.5,213.5,216.4z"/>
	<path class="st0" d="M363.3,237c-0.1-0.5-0.2-1.1-0.2-1.7c0-9.4,0-18.8,0-28.2c-0.1-2,0.7-3.9,2.3-5.1c0,0.9-0.1,1.4-0.1,2
		c0,8.7,0,17.4,0,26.1c-0.1,1.8-0.3,3.7-0.6,5.5c-0.1,0.5-0.5,0.9-0.8,1.3L363.3,237z"/>
	<path class="st0" d="M265.9,215.5c-0.1,4.1-0.4,8.2-0.4,12.3c-0.1,6.1-0.1,12.2-0.1,18.3c-0.1,1.5-0.7,2.9-1.8,3.9
		c-0.2-0.5-0.3-1.1-0.3-1.6c0.1-9.3,0.1-18.7,0.3-28c0.1-1.3,0.4-2.6,0.9-3.8c0.2-0.5,0.8-0.9,1.2-1.3L265.9,215.5z"/>
	<path class="st0" d="M69.7,193.5c-0.1,0.6-0.2,1.2-0.4,1.8c-0.2,0.4-0.6,0.8-1,1c-0.2,0.1-0.9-0.6-1-0.9c-0.1-1.3-0.2-2.7-0.1-4
		c0-0.4,0.6-0.9,0.9-0.9s0.8,0.5,1,0.9C69.4,192.1,69.6,192.8,69.7,193.5z"/>
	<path class="st0" d="M314.9,205.4c0.1-0.7,0.3-1.3,0.5-2c0.2-0.4,0.5-0.7,0.9-0.8c0.3,0,0.9,0.5,0.9,0.7c0.1,1.4,0.1,2.8-0.1,4.2
		c-0.2,0.4-0.5,0.7-0.9,0.7c-0.4-0.1-0.8-0.4-0.9-0.8C315.1,206.8,315,206.1,314.9,205.4z"/>
	<path class="st0" d="M314,205.9c-0.2,0.8-0.4,1.5-0.7,2.2c-0.5,0.9-1.3,0.9-1.7-0.1c-0.6-1.4-0.6-3,0.1-4.4
		c0.1-0.3,0.6-0.7,0.9-0.7c0.4,0.1,0.8,0.4,1,0.8C313.7,204.5,313.9,205.2,314,205.9z"/>
	<path class="st0" d="M66,192.7c-0.1,1.6-0.8,3.1-1.5,2.9c-1.3-0.4-1.3-1.6-1.3-2.7c0-0.9,0.1-1.7,0.4-2.5c0.3-0.9,1.2-0.9,1.6-0.1
		C65.5,191,65.8,191.8,66,192.7z"/>
	<path class="st0" d="M357.9,287.4c-1.2,9.3-2.5,18.6-5.7,27.5c-0.7,1.6-1.4,3.2-2.2,4.7c-0.4,0.8-1.2,1.2-2.1,1.1
		c-5.8,0-11.7,0-17.5,0c-2.3,0-3.9,1.1-4.4,3c-0.5,2,0.3,3.6,2.4,4.8c2.3,1.2,4.6,2.4,6.9,3.7c-3.3,3.3-25.9,11.1-32.4,11.3l9.4-10
		c13.4-14.2,26.9-28.5,40.3-42.7c1.4-1.4,3.3-2.4,5-3.5L357.9,287.4z"/>
	<path class="st0" d="M347.1,293.6c-15.4,14.3-30.4,29.1-45,44.2c-21.8,22.7-0.1,0-0.5,0.1c1.9-3,3.5-6,5.4-8.7
		c3-4.3,5.8-8.8,9.2-12.8c4-4.8,9.1-8.4,14.2-11.9s10.6-7,15.9-10.5C346.6,293.8,346.8,293.7,347.1,293.6z"/>
	<path class="st0" d="M131,101.1c0,0.9,0.1,1.6,0,2.3c-0.1,1,0.4,1.3,1.3,1.3c4.9-0.1,3.9,0.7,4.1-3.8c0-0.4-0.1-0.9-0.1-1.5h-6.7
		l-0.2-0.5c0.6-0.4,1.2-1,1.9-1.1c1.7-0.1,3.4-0.1,5.1,0c0.9-0.1,1.7,0.6,1.7,1.5c0,0.1,0,0.2,0,0.4c0,1.6,0.1,3.2,0,4.8
		c0,1.4-0.7,1.9-2.1,1.9s-3,0-4.5,0s-1.9-0.6-2-2c0-1,0-1.9,0-3L131,101.1z"/>
	<path class="st0" d="M126.9,104.6v1.5h-7c0-1.3-0.1-2.5,0-3.6c0-0.8,0.6-1.4,1.4-1.4c0,0,0.1,0,0.1,0c1,0,2,0,3-0.1
		c0.4,0,0.6-0.6,1-0.8c-0.3-0.3-0.6-0.8-1-0.8c-1.4-0.1-2.9,0-4.3,0c-0.5-1.3-0.1-1.8,1.2-1.7s2.6,0,3.8,0.1
		c1.5,0.1,1.9,0.6,1.9,2.1c0,0.4,0,0.8,0,1.2c0.1,0.8-0.4,1.5-1.2,1.6c-0.1,0-0.2,0-0.3,0c-1.3,0.1-2.5,0.2-3.8,0.2
		c-0.4,1.7-0.3,1.9,1.2,1.9C124.2,104.7,125.5,104.6,126.9,104.6z"/>
	<path class="st0" d="M109.2,84.3l1.3,0.8l-3.4,6.2c-1.1-0.7-2.2-1.2-3.2-1.9c-0.7-0.4-1-1.2-0.6-1.9c0-0.1,0.1-0.1,0.1-0.2
		c0.5-0.8,0.9-1.7,1.3-2.5c0.1-0.3-0.1-0.8-0.2-1.2c-0.4,0.1-1,0.1-1.2,0.4c-0.6,1-1.2,2-1.7,3c-0.5,1-1,1-1.9,0.2
		c0.9-1.6,1.8-3.4,2.9-5c0.2-0.3,1.1-0.4,1.7-0.4c0.6,0.2,1.1,0.4,1.6,0.8c0.8,0.3,1.2,1.2,0.9,2c-0.1,0.2-0.1,0.3-0.2,0.4
		c-0.4,0.6-0.7,1.2-1,1.8c-0.3,0.7-1,1.4,0.1,2s1.3-0.3,1.7-1L109.2,84.3z"/>
	<path class="st0" d="M157.5,89.3l0.8,1.3l-7.4,4.1l-0.8-1.3c0.7-0.4,1.4-0.8,2.1-1.2c0.9-0.4,1-0.9,0.5-1.7s-0.8-1.5-1.2-2.3
		c-0.5-0.6-0.4-1.5,0.2-1.9c0.1-0.1,0.2-0.1,0.3-0.2c0.9-0.6,1.9-1.1,2.9-1.7l0.7,1.3c-0.1,0.1-0.2,0.2-0.4,0.3
		c-2.6,1.5-2.7,2.4-0.3,4.7L157.5,89.3z"/>
	<path class="st0" d="M145.7,85.4l7.1-4.4c0.7,1,0.7,1.7-0.4,2.3c-1.9,1.1-3.9,2.2-6,3.3L145.7,85.4z"/>
	<path class="st0" d="M125.8,127.8h4.9v-1.9h-5.2l-0.2-0.5c0.6-0.4,1.1-1,1.6-1.1c1.4-0.1,2.7-0.1,4.1,0c0.8,0,1.5,0.6,1.5,1.4
		c0,0.1,0,0.1,0,0.2c0,1.7,0,3.5,0,5.2c0,1.1-0.6,1.6-1.6,1.6s-2,0-3,0c-2.2,0-3-1.1-2.4-3.2L125.8,127.8z M130.7,129.4
		c-1-0.1-2-0.1-3,0c-0.3,0-0.5,0.6-0.8,0.9c0.3,0.2,0.5,0.6,0.8,0.6c1,0.1,2,0,2.9,0L130.7,129.4z"/>
	<path class="st0" d="M190.5,152.4c4.9,0,8.8,4,8.8,8.9c0,4.9-4,8.8-8.9,8.8s-8.8-4-8.8-8.9C181.6,156.3,185.6,152.3,190.5,152.4z
		 M196.6,161.2c0.1-3.3-2.6-6-5.9-6.1c-0.1,0-0.2,0-0.3,0c-3.4,0-6.1,2.8-6.1,6.2s2.8,6.1,6.2,6.1
		C193.9,167.3,196.6,164.6,196.6,161.2z"/>
	<path class="st0" d="M252.7,161.1c0-4.9,4-8.8,8.9-8.8c4.9,0,8.8,4,8.8,8.9c0,4.9-4,8.8-8.9,8.8c0,0-0.1,0-0.1,0
		c-4.8,0-8.7-3.9-8.7-8.7C252.7,161.2,252.7,161.2,252.7,161.1z M255.5,161.1c0,3.4,2.7,6.2,6.1,6.2c3.4,0,6.2-2.7,6.2-6.1l0,0
		c-0.1-3.4-2.9-6-6.3-5.9C258.2,155.3,255.7,157.8,255.5,161.1L255.5,161.1z"/>
	<path class="st0" d="M217,112.3l2.4-0.4v13.1c-0.8,0-1.5-0.8-1.5-1.6c0,0,0,0,0-0.1C217.6,119.8,217.3,116.2,217,112.3z"/>
	<path class="st0" d="M213.4,112.4h1.9v11.5c-0.6-0.6-1.3-1.1-1.4-1.6c-0.3-3.1-0.5-6.2-0.7-9.3
		C213.3,112.8,213.3,112.6,213.4,112.4z"/>
	<path class="st0" d="M138.5,62.8c0.4,0.2,0.9,0.4,1.3,0.7c0.2,0.2,0.3,0.6,0.4,0.8c1,1.9,2,2.2,4.1,1l-1.2-2.5l0.2-0.3
		c0.3,0.2,0.8,0.2,1,0.5c1.1,1.7,2,3.5,3,5.3l-0.2,0.3c-0.4-0.2-0.9-0.2-1.1-0.5c-0.6-0.9-1.4-0.8-2.1-0.6c-2.8,0.7-3.3,0.8-4.8-2.4
		l-0.8-1.8L138.5,62.8z"/>
	<path class="st0" d="M119.2,61.8l-3.6,0.4c1.4-1.2,3.3-1.8,5.1-1.6c0.1,0.2,0.2,0.3,0.2,0.4c-0.7,2.1-1.4,4.3-2.2,6.4
		c-0.4,1.1-1.5,1.7-2.6,1.7h-1.8c-2.1,0-2.2-0.2-1.2-2.1c0.4-0.8,1-1.7,1.5-2.4c0.3-0.3,0.8-0.6,1.2-0.6c0.7-0.1,1.3-0.2,2-0.3
		c0.6-0.3,1.1-0.7,1.6-1.1L119.2,61.8z M117.9,65.2c-2.7-0.1-3,0.1-3.4,1.6C116.5,67.5,117.7,66.9,117.9,65.2L117.9,65.2z"/>
	<path class="st0" d="M114,61.3c0,1.9-3.5,7.6-4.9,8.1L114,61.3z"/>
	<path class="st0" d="M91.1,106.5c-1.3,0.3-1.1-0.8-1.4-1.3c-0.5-0.8-0.8-1.6,0.4-2.1s1.9-0.6,2.4,0.7c0.3,0.9,0.9,1.5,2.2,0.8
		c-0.3-0.6-0.6-1.3-0.8-2c0-0.4,0-0.8,0.1-1.1c0.3,0.1,0.8,0.2,0.9,0.5c0.6,1,1.2,2,1.9,3.2c-1.1,0.3-2.2,0.6-3.3,0.8
		c-0.4,0-1-0.4-1.4-0.8s-0.4-0.8-0.7-1.1c-0.1-0.2-0.4-0.2-0.7-0.3c-0.1,0.3-0.3,0.6-0.3,0.8C90.5,105.2,90.8,105.9,91.1,106.5z"/>
	<path class="st0" d="M97.7,107.5c-2,0.5-4,1-6,1.5c-0.2,0-0.5-0.1-0.6-0.2c0-0.2,0.1-0.5,0.2-0.6c0.4-0.2,0.7-0.3,1.1-0.4
		c1.4-0.3,2.8-0.6,4.1-0.8c0.4,0,0.8,0.1,1.2,0.2L97.7,107.5z"/>
	<path class="st0" d="M163.2,108.4c-2.3-1.6-2.5-2.4-1.5-4.9c0.1-0.2,0.1-0.3,0.2-0.5c0.4-0.8,0.9-1.5,1.4-2.2
		c0.7,0.6,1.5,1.2,2.2,1.8c0.2,0.2,0.3,0.4,0.3,0.7c-0.7,1.7-1.5,3.3-2.2,4.9C163.5,108.3,163.4,108.4,163.2,108.4z M163,106.6
		c1.6-2.1,1.7-3.3,0.4-3.8C162.1,104.7,162,105.5,163,106.6L163,106.6z"/>
	<path class="st0" d="M165.6,109.8c-0.8-2.2,1-3.7,1.6-5.5C167.9,106.4,166.5,108,165.6,109.8z"/>
	<path class="st0" d="M151.1,126.3l-1.1-0.7h3.4c-0.4,3.1-2.7,4.1-6.4,3.6C148,127.5,150.9,129,151.1,126.3z"/>
	<path class="st0" d="M154.7,128.1c0.8-0.8,0.2-2.6,2-2.4c1.2,0.1,0.6,1.1,0.4,1.8C156.7,128.8,155.8,128.4,154.7,128.1z"/>
	<path class="st0" d="M157.1,124.6H152v-0.2h5.1L157.1,124.6z"/>
	<path class="st0" d="M112.8,130.1c-2,0-3.6,0-5.2,0c-0.5,0-1.1,0.3-1.6,0.2s-0.8-0.6-1.1-0.9l0.2-0.5c2,0,4.1-0.1,6.1-0.1
		C111.7,128.9,112.1,129.6,112.8,130.1z"/>
	<path class="st0" d="M109.9,126.8c-1.7,0.2-3.1,0.9-4.8-0.4l2.7-0.7l-2.1-3.1l0.3-0.3L109.9,126.8z"/>
	<path class="st0" d="M101.9,123.8l2.3,3.2l-0.4,0.3c-1-0.9-1.8-2-2.3-3.2L101.9,123.8z"/>
	<path class="st0" d="M225.7,75.2l2.6,2.6l-2.5,2.5l-2.5-2.5L225.7,75.2z M227.3,78l-1.4-1.7l-1.8,1.5l1.6,1.6L227.3,78z"/>
	<path class="st0" d="M224,83l1.8-1.8l2,1.7l-2.1,1.8L224,83z M225.8,84.1l1-1.2l-1.1-1l-1,1.1L225.8,84.1z"/>
	<path class="st0" d="M217,272.7l1.7-4.8C220,270.7,219.8,271.4,217,272.7z"/>
	<path class="st0" d="M242.5,267.4c1.3,2.8,1.3,2.9-1.6,4.9L242.5,267.4z"/>
	<path class="st0" d="M203,266.9c1.2,2.6,0.9,3.3-1.8,4L203,266.9z"/>
	<path class="st0" d="M250.3,400.1c0.1,1.7-1.2,3.1-2.8,3.2c-0.1,0-0.1,0-0.2,0c-2.7,0-4.7-1.5-4.7-3.6c0.2-2,1.8-3.6,3.9-3.7
		c2.1,0,3.9,1.8,3.8,3.9C250.3,400,250.3,400.1,250.3,400.1z M246.6,401l1.5-1.2c-0.5-0.3-1.1-0.9-1.6-0.9s-0.9,0.6-1.4,0.9
		L246.6,401z"/>
	<path class="st0" d="M257.4,398.7l6,1.4c-0.8,1.9-3,2.9-4.9,2.1c-0.2-0.1-0.4-0.2-0.5-0.3C256.8,401.2,256.6,400.3,257.4,398.7z"/>
	<path class="st0" d="M184.2,264.1l0.8,1.9l-2.5,0.4L184.2,264.1z"/>
</g>
</svg>
